<?xml version="1.0" encoding="UTF-8"?>
<svg version="1.1" xmlns="http://www.w3.org/2000/svg" width="218" height="38">
<path d="M0 0 C6.74817898 0 6.74817898 0 9.5859375 2.81640625 C10.20291504 3.41275879 10.81989258 4.00911133 11.45556641 4.62353516 C12.08897949 5.26339355 12.72239258 5.90325195 13.375 6.5625 C14.70238996 7.8536207 16.03050769 9.14399364 17.359375 10.43359375 C17.98908203 11.05347168 18.61878906 11.67334961 19.26757812 12.31201172 C21.32822168 14.31980337 23.45277348 16.23881094 25.625 18.125 C26.17414063 18.60195313 26.72328125 19.07890625 27.2890625 19.5703125 C29.49711025 21.41539349 31.75307816 23.20246253 34 25 C34.33 16.75 34.66 8.5 35 0 C36.98 0 38.96 0 41 0 C41.33 10.56 41.66 21.12 42 32 C45.279375 26.864375 45.279375 26.864375 48.625 21.625 C49.30127441 20.56748535 49.97754883 19.5099707 50.67431641 18.42041016 C51.50455322 17.11789307 51.50455322 17.11789307 52.3515625 15.7890625 C53.27243652 14.35288574 53.27243652 14.35288574 54.21191406 12.88769531 C55.3997089 10.96944882 56.53818811 9.01974035 57.62402344 7.04199219 C58.12708008 6.12836914 58.63013672 5.21474609 59.1484375 4.2734375 C59.58075684 3.45020996 60.01307617 2.62698242 60.45849609 1.77880859 C62 0 62 0 64.46704102 -0.53466797 C67 0 67 0 68.77563477 1.78320312 C69.56925415 3.01973633 69.56925415 3.01973633 70.37890625 4.28125 C71.27053467 5.65216797 71.27053467 5.65216797 72.18017578 7.05078125 C72.78071777 8.02402344 73.38125977 8.99726563 74 10 C74.87954346 11.41345703 74.87954346 11.41345703 75.77685547 12.85546875 C77.52795469 15.71974932 79.23819026 18.60473519 80.9375 21.5 C81.52595703 22.48742187 82.11441406 23.47484375 82.72070312 24.4921875 C83.27564453 25.43320312 83.83058594 26.37421875 84.40234375 27.34375 C84.90241943 28.19130859 85.40249512 29.03886719 85.91772461 29.91210938 C87 32 87 32 87 34 C84.3125 34.5 84.3125 34.5 81 34 C79.99804688 32.23632813 79.99804688 32.23632813 79.03125 30.03125 C77.37290807 27.20965897 76.62539678 26.18399294 73.4440918 25.24804688 C70.3353406 24.98785318 67.30643218 24.9428418 64.1875 25 C62.57584961 24.98259766 62.57584961 24.98259766 60.93164062 24.96484375 C58.28582644 24.9413254 55.64537371 24.95423119 53 25 C52.54246338 26.16752808 52.54246338 26.16752808 52.07568359 27.35864258 C50.95521947 30.10995928 50.13434449 31.92623734 48 34 C43.22909484 35.10994066 38.79131591 34.95198635 34 34 C30.3168451 31.52640189 27.80341674 28.40453924 25 25 C23.71579605 23.8022573 22.40386548 22.63336049 21.0625 21.5 C16.30230308 17.41296224 11.65696847 13.20420764 7 9 C6.67 17.25 6.34 25.5 6 34 C4.02 34 2.04 34 0 34 C0 22.78 0 11.56 0 0 Z M64 7 C61.69 10.96 59.38 14.92 57 19 C61.95 19 66.9 19 72 19 C71.236875 17.39125 70.47375 15.7825 69.6875 14.125 C69.25824219 13.22007813 68.82898438 12.31515625 68.38671875 11.3828125 C67.0800612 8.73550524 67.0800612 8.73550524 64 7 Z " fill="#2B3494" transform="translate(128,2)"/>
<path d="M0 0 C6.991875 -0.0928125 6.991875 -0.0928125 14.125 -0.1875 C15.58437988 -0.21481201 17.04375977 -0.24212402 18.54736328 -0.27026367 C19.70993652 -0.27775635 20.87250977 -0.28524902 22.0703125 -0.29296875 C23.25383301 -0.3086792 24.43735352 -0.32438965 25.65673828 -0.34057617 C30.20089612 0.12233461 33.53524575 1.63289604 36.875 4.75 C38.55624994 8.11249988 38.58485025 10.2959484 38 14 C36.17871822 16.22786762 34.4538567 17.38045458 32 19 C31.34 19 30.68 19 30 19 C30.6496875 19.99902344 31.299375 20.99804688 31.96875 22.02734375 C32.81261881 23.33065225 33.65636236 24.63404185 34.5 25.9375 C34.92925781 26.59685547 35.35851562 27.25621094 35.80078125 27.93554688 C39 32.88671875 39 32.88671875 39 34 C35.70703125 34.40625 35.70703125 34.40625 32 34 C30.19921875 31.15625 30.19921875 31.15625 28.6875 27.5 C27.34226829 24.74147426 26.19574618 23.32767943 24 21 C18.19139749 19.30878602 11.9083341 20.26145824 6 21 C6 25.29 6 29.58 6 34 C4.02 34 2.04 34 0 34 C0 22.78 0 11.56 0 0 Z M5 5 C5.33 8.3 5.66 11.6 6 15 C9.58353441 15.05393279 13.16625756 15.09364225 16.75 15.125 C17.76578125 15.14175781 18.7815625 15.15851562 19.828125 15.17578125 C21.29765625 15.18544922 21.29765625 15.18544922 22.796875 15.1953125 C24.14797363 15.21102295 24.14797363 15.21102295 25.52636719 15.22705078 C28.13926856 14.98721676 29.75664666 14.32312064 32 13 C32 11.02 32 9.04 32 7 C28.74246076 5.06290362 26.34390072 4.76284555 22.578125 4.8046875 C21.55332031 4.81113281 20.52851562 4.81757812 19.47265625 4.82421875 C17.87744141 4.84935547 17.87744141 4.84935547 16.25 4.875 C15.17105469 4.88402344 14.09210937 4.89304687 12.98046875 4.90234375 C10.32021751 4.9258858 7.66008051 4.96175603 5 5 Z " fill="#2B3494" transform="translate(49,2)"/>
<path d="M0 0 C11.55 0 23.1 0 35 0 C35 1.65 35 3.3 35 5 C25.43 5 15.86 5 6 5 C6 7.97 6 10.94 6 14 C14.58 14 23.16 14 32 14 C32 15.65 32 17.3 32 19 C23.42 19 14.84 19 6 19 C6 22.3 6 25.6 6 29 C15.9 29 25.8 29 36 29 C36 30.65 36 32.3 36 34 C24.12 34 12.24 34 0 34 C0 22.78 0 11.56 0 0 Z " fill="#2B3494" transform="translate(90,2)"/>
<path d="M0 0 C2.64160156 0.51196289 2.64160156 0.51196289 4.72216797 2.98706055 C5.38909668 4.12191895 6.05602539 5.25677734 6.74316406 6.42602539 C7.10630707 7.03328461 7.46945007 7.64054382 7.84359741 8.26620483 C9.00208576 10.21337691 10.13410726 12.17458215 11.26660156 14.13696289 C12.03579606 15.43611168 12.80661247 16.73430165 13.57910156 18.03149414 C16.78182992 23.44127373 19.88032816 28.85782498 22.64160156 34.51196289 C20.33160156 34.51196289 18.02160156 34.51196289 15.64160156 34.51196289 C11.64160156 27.76196289 11.64160156 27.76196289 11.64160156 25.51196289 C3.72160156 25.51196289 -4.19839844 25.51196289 -12.35839844 25.51196289 C-13.34839844 27.98696289 -13.34839844 27.98696289 -14.35839844 30.51196289 C-15.60839844 32.82446289 -15.60839844 32.82446289 -17.35839844 34.51196289 C-20.54589844 34.76196289 -20.54589844 34.76196289 -23.35839844 34.51196289 C-21.97848195 30.73187704 -20.23442772 27.56042126 -18.02246094 24.20336914 C-17.37019531 23.20885742 -16.71792969 22.2143457 -16.04589844 21.18969727 C-15.36527344 20.16166992 -14.68464844 19.13364258 -13.98339844 18.07446289 C-13.31050781 17.05030273 -12.63761719 16.02614258 -11.94433594 14.97094727 C-10.650683 13.00372896 -9.35052539 11.04076812 -8.04296875 9.08276367 C-7.04711276 7.56300083 -6.07654907 6.02524758 -5.16601562 4.45288086 C-2.9375983 0.63769603 -2.9375983 0.63769603 0 0 Z M-0.35839844 7.51196289 C-1.58567824 9.10713233 -2.76546349 10.73900921 -3.92089844 12.38696289 C-4.5615625 13.29188477 -5.20222656 14.19680664 -5.86230469 15.12915039 C-7.53564676 17.32533856 -7.53564676 17.32533856 -7.35839844 19.51196289 C-2.73839844 19.51196289 1.88160156 19.51196289 6.64160156 19.51196289 C5.34801362 16.27799304 4.2387789 13.62716436 2.51660156 10.69946289 C1.89785156 9.64758789 1.27910156 8.59571289 0.64160156 7.51196289 C0.31160156 7.51196289 -0.01839844 7.51196289 -0.35839844 7.51196289 Z " fill="#2B3494" transform="translate(25.3583984375,1.488037109375)"/>
</svg>
