<?xml version="1.0" encoding="UTF-8"?>
<svg id="Layer_1" xmlns="http://www.w3.org/2000/svg" viewBox="0 0 1224 200">
  <defs>
    <style>
      .cls-1 {
        fill: none;
      }

      .cls-2 {
        fill: #e51c24;
      }

      .cls-3 {
        fill: #e31c24;
      }

      .cls-4 {
        fill: #ef1d25;
      }

      .cls-5 {
        fill: #ff2129;
      }

      .cls-6 {
        fill: #ff2128;
      }

      .cls-7 {
        fill: #e91c24;
      }

      .cls-8 {
        fill: #e81b25;
      }

      .cls-9 {
        fill: #ed1c24;
      }

      .cls-10 {
        fill: #b4161c;
      }

      .cls-11 {
        fill: #e41b23;
      }

      .cls-12 {
        fill: #c51a1f;
      }

      .cls-13 {
        fill: #ff2028;
      }

      .cls-14 {
        fill: #e81c24;
      }

      .cls-15 {
        fill: #b5161c;
      }

      .cls-16 {
        fill: #eb1c24;
      }

      .cls-17 {
        fill: #fa2129;
      }

      .cls-18 {
        fill: #b9171d;
      }

      .cls-19 {
        fill: #fd1f28;
      }

      .cls-20 {
        fill: #fb1f28;
      }

      .cls-21 {
        fill: #ec1c24;
      }

      .cls-22 {
        fill: #fe2028;
      }
    </style>
  </defs>
  <path class="cls-1" d="M913,200H0V0h1224v200h-311M372.39,34.06c-.15.3-.3.6-.93,1.52-.39,2.82-.77,5.64-1.41,9.19-.05,1.01-.1,2.02-.26,3.05,0,0,0,.11-.54.39-.07.59-.15,1.19-.26,1.76,0,0,0,.04-.6.34-.7,3.24-1.41,6.47-2.36,10.43-1.3,5.75-2.61,11.5-4.19,17.86-.31.79-.62,1.58-1.63,2.63-.67,3.94-1.35,7.88-2.33,12.37-.34.74-.68,1.48-1.65,2.6-.14,2.37-.47,4.74-.36,7.09.14,2.93-.57,5.02-4,4.94-.61-1.09-1.23-2.18-2.02-4.09-.44-2.17-.85-4.36-1.34-6.52-.43-1.92-.95-3.82-1.69-6.32-.34-.75-.68-1.5-1-2.92-.72-.76-1.43-1.52-2.13-3.04-.07-.5-.14-1,.3-2.01-.3-2.16-.6-4.32-.95-7.27-.34-.9-.76-1.79-1.01-2.72-1.04-3.78-2.02-7.57-3.08-12.11-.38-1.41-.76-2.82-1.12-5.04-.93-3.1-1.85-6.19-2.94-9.84-.36-.44-.71-.88-1.07-2.04-.44-2.19-.83-4.38-1.35-6.55-.39-1.62-.95-3.2-1.49-5.56-1.5-3.96-2.23-8.49-8.14-8.39-8.66.15-17.33.1-25.99-.02-3.65-.05-5,1.49-4.99,5.11.08,41.99.09,83.98.02,125.97,0,3.96,1.58,5.34,5.37,5.25,5.99-.14,12-.18,17.99.08,3.41.14,4.11-1.35,3.65-5.15-.03-21.35-.06-42.71.08-64.5,0,0,.06-.46.66-.57.4.03.81.07,1.55.74.94,2.61,1.94,5.19,2.79,7.83.46,1.43.68,2.94,1.03,5.13.39,1.08.78,2.15,1.21,4.06.95,3.74,1.9,7.49,2.81,11.73.15.34.4.53.77.68,0,0,.11.01.11.85.99,4.03,1.99,8.06,3.11,12.67.3.46.6.91,1.11,2.18.43,2.18.78,4.38,1.31,6.54.38,1.56.99,3.07,1.56,5.3.4,1.07.8,2.15,1.24,4.03,1.14,2.9,1.51,7.18,3.61,8.35,2.65,1.48,6.72.43,10.17.46.33,0,.66,0,.99,0q9.53,0,12.7-8.64c.11-.3.06-.65.26-1.66.37-1.08.73-2.16,1.76-3.57.68-3.92,1.36-7.85,2.35-12.36.3-.78.59-1.57,1.59-2.82.87-4.92-.16-9.77,4.18-14.48,2.98-3.23,2.23-9.9,3.74-15.3.86-3.87,1.72-7.74,3.13-11.88.47.7.94,1.4,1.31,3.04.03,2.66.13,5.32.09,7.98-.25,17.95-.51,35.91-.82,53.86-.07,4.09,1.38,6.16,5.87,5.96,6.14-.26,12.31-.17,18.46,0,3.69.1,5.14-1.49,5.04-5.06-.13-4.32-.11-8.65-.11-12.98.01-37.77-.01-75.53.11-113.3.02-4.59-1.73-6.21-6.24-6.03-6.98.27-13.98.27-20.96.03-5.51-.19-10.89-.8-10.65,7.26.02.76-.57,1.54-1.3,2.54-.26.2-.47.44-1.13.9M775.03,94.02s.01.06.5-.09c.13-.11.26-.21.79-.65,2.2-5.78,4.38-11.57,6.61-17.34,4.01-10.38-2.16-19.37-4.12-29.58-.41-.74-.81-1.49-1.22-2.89-2.11-2.29-4.08-4.75-6.38-6.83-2.59-2.34-5.5-4.33-8.9-6.61-.76-.37-1.52-.75-2.66-1.78-4.24-.68-8.48-1.37-13.3-2.36-.79-.28-1.57-.55-2.86-1.39-.59-.25-1.19-.71-1.78-.71-13.81-.05-27.63-.02-41.44-.08-3.61-.02-4.5,1.99-4.5,5.11.02,42.11.02,84.22-.02,126.33,0,3.56,1.38,5.14,5.06,5.06,7.15-.14,14.32-.28,21.46.08,4.62.23,6.2-1.23,6.05-5.93-.42-12.79-.49-25.6-.48-38.4,0-1.26,1.33-2.77,2.45-3.64.39-.31,2.44.68,2.99,1.54,3.26,5.17,6.51,10.38,9.37,15.78,2.4,4.53,4.17,9.39,6.4,14.02,1.86,3.86,3.98,7.59,5.76,11.53l-.08.37s.29.19.73.89c.46.64.93,1.27,1.25,1.62-.09.03-.19.07-.28.1.07.09.12.22.21.25.09.03.21-.05.31.26,0,0,.21.26.41,1,10.76.2,21.52.43,32.28.45.46,0,.93-2.04,1.4-3.88-2.76-4.77-5.51-9.54-8.27-14.75-.17-.28-.41-.43-.94-1.14-3.54-7.85-6.63-15.97-12.68-22.11-.07-1.54-.34-3.09-1.11-4.34-1.84-3.02-3.91-5.91-5.3-7.97,4.51-4.35,7.93-7.65,11.87-11.07.18-.29.35-.59.47-.88M890,37s.02-.03-.1-.71c-2.26-2.14-4.52-4.28-6.96-6.91-.29-.18-.58-.37-1.07-1.05-2.2-1.17-4.37-2.42-6.62-3.47-1.41-.66-2.95-1.41-4.45-1.43-9.25-.13-18.5-.12-27.74.02-1.4.02-2.79.95-4.77,1.75-.93.89-1.87,1.79-3.28,2.73-.28.21-.42.49-1.16.83-2.15.95-4.56,1.54-6.37,2.93-2.4,1.84-4.33,4.31-7.22,6.39-2.13,4.61-4.26,9.23-6.85,14.04-.16.29-.32.58-1.08,1.21.03,5.49-1.15,10.6-4.13,15.33-.7,1.11-.42,2.9-.42,4.38-.02,12.42-.13,24.85.1,37.27.06,2.94,1.32,5.86,2.25,9.46.5,2.14.98,4.28,1.5,6.41.4,1.64.85,3.27,1.31,5.67,1.33,2.77,2.66,5.53,4.06,9.03,2.44,3.12,4.49,6.67,7.41,9.25,3.64,3.23,7.99,5.66,12.46,9.04,1.37.36,2.73,1.02,4.1,1.03,7.83.07,15.66-.02,23.49-.06,4.54-.02,9.25.97,12.86-3.25,1.14-1.34,3.17-1.92,5.25-2.96,0,0,.43-.19,1.11-.18,7.7-5.84,13.14-13.2,16.03-23.05.29-1.41.77-2.81.84-4.23.29-6.25-.64-7-6.96-7.02-2.2,0-4.39-.83-7.38-1.41-2.06-.35-4.12-.69-6.48-1.71-7.32-1.1-7.69-.65-7.78,6.33-.03,2.11-1.27,4.21-2.61,6.53-2.41,2.61-4.81,5.23-7.75,7.93-.22.28-.44.56-1.51.87-1.99-.03-3.97-.06-6.35-.66-2.23-1.12-4.47-2.24-6.9-3.8-.2-.28-.46-.46-.96-1.25-.95-2.43-1.89-4.86-2.84-8.01-.4-1.07-.8-2.15-1.19-3.94-.49-1.7-1.39-3.4-1.4-5.1-.04-14.22.02-28.43.22-42.65.05-3.22.76-6.43,1.5-10.26,2.94-3.31,1.81-8.64,5.42-11.49,3.02-2.38,6.29-4.67,9.82-6.07,1.05-.42,3.25,2.49,5.11,3.53,1.23.69,2.8.75,4.22,1.1-.3.21-.61.42-.91.62,1.38,2.37,2.76,4.74,4.19,7.71.05.4.11.8.12,1.93,1.87,1.65,3.64,4.55,5.64,4.73,6.92.61,13.92.43,20.88.15,1.33-.05,3.72-2.02,3.65-2.97-.17-2.51,2.49-5.69-1.57-7.95-.23-.23-.49-.43-.89-1.39-.49-1.85-.81-3.77-1.54-5.52-.43-1.02-1.52-1.76-2.86-2.81-.46-.34-.92-.68-1.41-1.65-.06-.42-.11-.84-.03-1.92-.39-.77-.77-1.53-1.11-2.82-.28-.18-.56-.36-.87-.51M69.57,155.47c1.14.76,2.29,1.52,4.02,2.63.8.31,1.6.62,2.73,1.6,11.55.11,23.11.23,34.66.29.35,0,.7-.61,1.72-.97.76-.43,1.52-.86,2.97-1.32,1.34-1.23,2.69-2.47,4.48-4.27,1.67-.69,3.88-.91,4.91-2.14,3.55-4.22,6.69-8.79,10.63-13.49.72-2.28,1.43-4.56,2.28-7.3,0,0-.05-.48.28-1.12.54-2.72,1.94-5.68,1.25-8.05-.34-1.17-4.5-1.32-6.96-1.75-3.19-.56-6.4-.93-10.23-1.54-.78-.29-1.56-.57-3.03-1-4.36-1.96-8.38-.63-9.01,3.69-1,6.79-3.75,12.3-10.04,16.41-2.7.27-5.41.54-8.49.18-3.81-3.49-7.62-6.99-11.31-10.37.46-1.12,1.23-2.07,1.13-2.94-.33-3.01-.89-5.99-1.48-8.97-.27-1.36-.8-2.67-1.2-4.77-.06-.77-.11-1.53.02-2.9-.28-.49-.56-.99-.9-2.29-.08-1.35-.17-2.7-.27-4.79-.56-2.13-1.67-4.29-1.58-6.39.18-3.99,1.06-7.94,1.8-12.67.04-1.03.08-2.07.78-3.51.42-4.05.8-8.1,1.29-12.14.19-1.57.53-3.14,1-4.65,1.83-5.77,5.06-10.53,10.61-14.08.28-.21.42-.49.4-.78,0,0,.06.01.88-.04,2.36.24,4.71.48,7.72.98,6.98,3.45,7.83,10.16,8.53,17h30.04c-1.88-6.24-3.35-12.31-5.6-18.08-1.26-3.24-3.81-5.97-5.69-9.64-1.51-3.67-3.75-6.55-8.3-7.85-1.86-.83-3.73-1.67-5.63-2.45,0,0,.06-.04-.26-.68-1.67-.48-3.32-1.33-5-1.38-5.3-.17-10.62-.34-15.9.03-6.46.45-13.7-2.58-19.03,3.79-.24.28-1.05.02-1.41.28-2.23,1.59-4.41,3.25-7.1,5.2-.09.17-.17.35-.86.62-2.23,2.52-4.46,5.04-6.89,7.52,0,0-.13.33-.82.66-.89,2.33-1.79,4.66-3.17,7.17-.18.29-.36.57-1.16,1.14-.74,2.22-1.47,4.45-2.42,7.35-.38,1.09-.76,2.17-1.77,3.67-.13,19.88-.26,39.75-.33,59.63,0,.67.73,1.34,1.13,2.74.76,1.46,1.51,2.91,2.43,4.91.5.82,1.01,1.64,1.38,3.03.04.39.07.78-.09,1.36.09.31.18.62.24,1.71,1.69,3.04,3.39,6.09,5.47,9.64.87,1.13,1.73,2.25,3.11,3.74.44.65.88,1.29,1.55,2.57,2.01,1.27,4.02,2.54,6.09,4.09,0,0,.27.08.38.69M1001.89,65.65c-.32.75-.64,1.5-1.64,2.56-1.05,3.93-2.11,7.86-3.27,12.26,0,0-.09.48-.78.75-.76,3.91-1.52,7.82-2.95,12.06-.3,1.07-.74,2.13-.86,3.22-.26,2.33-.36,4.68-1.08,7.42-.78,1.33-1.57,2.66-2.9,4.21.15.4.3.8.37,1.97-.92,2.47-2.12,4.87-2.69,7.41-.99,4.42-1.58,8.92-2.86,13.66-.76.91-1.52,1.81-3.12,2.82-.65,3.69-1.29,7.38-2.24,11.62-.33.74-.66,1.49-1.83,2.36-.21,2.14-.42,4.28-.63,6.42-.47,4.77,1.74,6.56,6.44,6.28,4.77-.29,9.58-.31,14.36-.08,4.81.23,9.19.47,8.59-6.45-.09-1.01.83-2.1,1.86-3.47.51-1.09,1.24-2.13,1.5-3.28.61-2.74,1.01-5.54,1.75-8.91.07-1.11.14-2.22.85-3.69,1.18-5.71,4.86-6.81,10.2-6.32,5.75.52,11.59.24,17.38.08,4.64-.13,9.44-.94,10.71,6.2.37,1.41.75,2.82,1.12,5.06.45,1.83.86,3.68,1.36,5.5.43,1.58.96,3.14,1.52,5.44.66,1.42,1.32,2.84,1.49,4.68,1.62,1.73,3.15,4.85,4.88,4.96,8.55.57,17.15.53,25.73.28,2.91-.08,4.81-1.79,1.89-5.47-.35-.74-.69-1.48-1.19-3.03-.93-3.4-1.86-6.79-2.94-10.75-.33-.47-.66-.94-.85-2.25-1.06-3.72-2.12-7.44-3.21-11.74-.58-.49-1.15-.98-1.76-2.26-.59-2.38-1.14-4.77-1.77-7.14-.44-1.67-1-3.31-1.51-5.79-.41-2.21-.73-4.44-1.27-6.61-.32-1.27-.99-2.46-1.7-4.11-.2-.27-.46-.45-.98-1.35-.44-2.15-.83-4.31-1.34-6.44-.39-1.6-.95-3.17-1.5-5.48-2.37-4.04-4.7-8.07-4.09-13.08.08-.65-.71-1.4-1.12-2.93-.4-2.23-.68-4.49-1.23-6.68-.3-1.18-1.06-2.25-2.11-3.6-.21-.29-.43-.59-.65-1.72-.43-2.16-.68-4.38-1.34-6.47-.62-1.95-1.67-3.76-3.09-5.91-.45-.65-.89-1.29-1.39-2.64-.29-.81-.58-1.63-.82-3.3-.45-2.95-.91-5.89-1.35-9.65-.45-1.56-1.24-3.12-1.28-4.69-.09-2.97-1.53-4.27-4.3-4.24-9.77.12-19.55.3-29.49.17-.27.48-.55.95-1.5,1.72-.64,1.07-1.61,2.08-1.85,3.23-.6,2.83-.86,5.73-1.4,9.28-.35,1.06-.7,2.13-1.74,3.52-.77,3.91-1.54,7.82-2.74,11.93-.27.19-.46.45-1.3,1-.68,3.64-1.35,7.27-2.33,11.47M502.04,100.95s0-.03-.2-.84c-.44-2.16-.86-4.32-1.33-6.46-.43-1.95-.91-3.88-1.48-6.45-.41-.72-.81-1.43-1.25-2.98-.45-1.84-.88-3.68-1.36-5.51-.42-1.58-.91-3.15-1.61-5.41-.93-1.92-2.19-3.74-2.72-5.77-.91-3.48-1.35-7.08-2.21-11.44-.44-2.22-.84-4.44-1.35-6.65-.43-1.84-.99-3.64-1.52-6.12-.4-.76-.8-1.52-1.22-3.12-.44-2.18-.81-4.38-1.33-6.54-.38-1.58-.93-3.12-1.46-5.39-.67-1.12-1.33-2.23-2.26-3.95-11.07-.17-22.15-.46-33.22-.31-1.26.02-3.58,2.55-3.58,3.92-.17,42.45-.07,84.91-.14,127.36,0,3.83,1.52,4.91,5.06,4.81,5.99-.17,11.99-.13,17.98.02,3.8.09,5.39-1.39,5.33-5.31-.27-19.14-.4-38.28-.52-57.43-.02-3.06.3-6.12.47-9.18.43-.14.85-.28,1.28-.41.84,1.38,2.04,2.67,2.45,4.17.98,3.61,1.58,7.32,2.33,11.7.44,2.18.83,4.37,1.34,6.54.38,1.63.92,3.22,1.46,5.53.42,1.07.83,2.13,1.26,4.03.4,2.23.7,4.49,1.24,6.7.3,1.24.98,2.39,1.74,4,.2.26.46.45.95,1.39.44,2.16.84,4.33,1.33,6.48.44,1.92.98,3.82,1.5,6.38.4.75.8,1.49,1.23,3.08.42,2.23,1.27,4.48,1.17,6.68-.2,4.59,1.87,6.27,6.22,6.13,4.31-.14,8.64-.15,12.95.04,4.19.19,6.49-1.7,7.42-6.39.31-1.1.62-2.19,1.45-3.92,1.24-4.72,2.47-9.45,4.36-14.58.68-4.28,1.36-8.55,2.22-13.64.49-3.33.98-6.66,2.15-9.88.68-1.36,1.35-2.72,2.59-4.39,1.05-4.62,2.1-9.25,3.44-14.47.7-1.05,1.4-2.1,2.32-3.48.3.96.48,1.55.52,3.07.02,21.68.04,43.35-.08,65.68,1.47.66,2.92,1.83,4.41,1.89,5.66.23,11.34-.1,16.99.17,4.89.24,6.37-1.86,6.33-6.54-.17-19.83-.1-39.66-.1-59.49,0-21.83,0-43.66.09-65.48.01-3.49-.78-5.9-4.88-5.89-9.5.02-18.99-.12-28.49.06-1.19.02-2.97,1.34-3.4,2.47-.96,2.57-1.25,5.39-1.9,8.75-.06.42-.11.85-.78,1.66-1.01,4.26-2.03,8.51-3.18,13.5-.04.74-.08,1.49-.81,2.63-1.43,5.53-2.86,11.07-4.94,16.95-.7,3.91-1.4,7.82-2.41,12.29-.34.74-.68,1.49-1.68,2.63-.66,4.28-1.32,8.56-2.29,13.42-.3.78-.61,1.56-1.47,2.61-.03,1.43.15,2.9-.13,4.28-.49,2.37-1.15,6.63-1.94,6.68-4.23.25-2.11-3.75-3.06-5.85-.07-.15-.18-.27-.22-1.15-.07-.74-.14-1.48-.14-2.76-.29-.18-.59-.36-.91-.53M173.29,144.68c2.28,2.44,4.47,4.95,6.86,7.27,1.23,1.19,2.8,2.04,4.54,3.61,4.91,1.55,9.74,4.03,14.73,4.43,9.07.72,18.26.59,27.35,0,3.84-.25,7.67-2.29,11.27-4.01,2.56-1.22,4.73-3.25,7.6-5.12.47-.58.94-1.16,2.04-2.15.36-1.2.34-2.9,1.14-3.51,6.1-4.6,7.79-11.58,10.87-18.52.7-3.91,1.4-7.81,2.29-12.45,3.81-15.07,3.36-30.12-.2-45.87-.43-2.18-.79-4.38-1.3-6.54-.39-1.63-.97-3.21-1.5-5.58-1.12-1.86-2.94-3.61-3.23-5.59-1.18-7.91-6.87-12.76-12.13-17.5-3.1-2.8-5.49-8.41-11.87-6.94-1.81-.79-3.6-2.21-5.42-2.26-8.81-.24-17.65.25-26.45-.2-8.61-.43-14.48,4.59-20.33,9.4-7.21,5.92-10.98,14.35-15.32,23.08-.61,3.96-1.21,7.92-2.11,12.59-.78,3.62-2.1,7.22-2.24,10.87-.32,8.26-.36,16.55.07,24.8.21,3.94,1.74,7.82,2.92,12.6.21,1.75.31,3.52.64,5.25.37,1.95.93,3.87,1.46,6.45.41.73.82,1.46,1.25,2.95.93,2.08,1.87,4.17,3.02,6.7.2.28.47.47.92,1.26.93,1.45,1.86,2.9,3.13,5.01M1177.03,134.02c-12.96-.04-25.92-.09-38.95-.97-.5-2.72-1.44-5.44-1.45-8.16-.08-31.97-.05-63.95.04-95.93.01-4.09-1.73-5.75-5.73-5.61-3.99.14-7.99.1-11.99.04-12.37-.19-11.57-.79-11.55,11.61.05,39.8.02,79.61-.06,119.41,0,3.66.68,6.28,5.05,6.27,21.15-.02,42.3-.01,63.45,0,3.02,0,4.75-1.4,4.77-4.49.04-6.49.1-12.99-.13-19.48-.03-.9-1.64-1.74-3.45-2.69M598.31,159.65c.25.2.5.56.75.56,21.64.03,43.28.02,64.91.04,3.29,0,4.3-1.78,4.25-4.79-.09-4.82-.16-9.66.01-14.48.15-3.92-1.5-5.31-5.36-5.22-9.82.23-19.64.06-29.46.29-4.2.1-5.56-1.66-5.44-5.7.21-6.99.18-13.99-.01-20.97-.1-3.85,1.38-5.4,5.24-5.33,8.65.16,17.31-.03,25.97.19,3.66.09,5.21-1.12,5.08-4.86-.18-4.82-.16-9.66,0-14.48.14-3.99-1.68-5.23-5.47-5.14-8.49.22-16.98.07-25.47.26-3.81.08-5.46-1.33-5.35-5.27.19-6.99.26-13.99.02-20.97-.15-4.34,1.4-5.95,5.8-5.82,9.82.29,19.64.13,29.46.29,3.65.06,5.14-1.47,5.02-5.09-.15-4.65-.25-9.33,0-13.97.23-4.25-1.55-5.44-5.61-5.42-20.81.09-41.61-.08-62.42-.07-.64,0-1.29.87-2.16,2.25-.01,36.38-.04,72.76-.03,109.14,0,7.97.14,15.93.29,24.57M956.12,129.5c.03-33.5.05-66.99.12-100.49,0-2.96-.26-5.42-4.08-5.41-8.81.02-17.62,0-26.79,0v136.63c8.68,0,17-.24,25.3.1,4.22.17,5.71-1.16,5.6-5.34-.23-8.16-.12-16.33-.15-25.49Z"/>
  <path class="cls-16" d="M485.82,41.05c.4.76.8,1.52,1.03,2.97-.1,5.05-3.27,10.33,3.25,12.88.64,3.55,1.09,7.15,1.99,10.64.53,2.02,1.79,3.85,2.66,6.45-.57,4.61-2.23,8.88,3.06,11.07.41.72.81,1.43,1.14,2.86-.03,4.77.02,8.83.07,13.35.27,3.89-.85,7.6,1.84,11.96.97-3.68,1.58-5.96,2.18-8.25.09.14.21.26.27.41.95,2.1-1.16,6.1,3.06,5.85.79-.05,1.45-4.31,1.94-6.68.28-1.38.1-2.85.61-4.06.91,3.7,1.34,7.18,1.77,10.65.69,0,1.39,0,2.08,0,.07-4.77.15-9.54.35-14.68,0-4.46-.14-8.54-.27-12.63.34-.74.68-1.49,1.51-2.63,5.32-3.62,3.53-8,2.57-12.23,1.43-5.53,2.86-11.07,4.66-16.35.49,3.67.6,7.08.72,10.49.87-.01,1.74-.02,2.61-.03,0-4.8,0-9.6.1-14.78.33-4.4.56-8.43.79-12.45.06-.42.11-.85.44-1.8,1.36-1.12,2.45-1.71,3.8-2.16,5.68-4,12-2.81,18.1-2.89,1.17-.02,2.33,0,3.5,0,7.2.03,7.32.12,7.32,7.23,0,35.65.04,71.3-.01,106.95-.02,13.02,1.54,11.58-11.73,11.88-4.83.11-6.38-1.67-6.31-6.4.21-15.66-.01-31.32.14-46.98.04-3.92-.58-7.26-3.91-9.66-.18-.59-.37-1.18-.66-2.14-.92,1.38-1.62,2.43-2.8,3.92-1.49,2.13-3.07,3.73-3.38,5.55-.49,2.86-.14,5.86-.14,8.8-.68,1.36-1.35,2.72-2.78,4.04-1.95,1.18-3.97,2.29-4.17,3.67-.34,2.32.46,4.82.57,7.55-.35,4.46-.5,8.62-.65,12.78-1.24,4.72-2.47,9.45-4.16,14.13-.86-3.18-1.26-6.32-1.67-9.46l-2.15.03c-.04,4.73-.07,9.46-.14,14.18-.03-.02.03,0-.44-.01-4.29-.02-8.12-.11-11.94-.02-3.15.08-5.52-.43-5.9-4.34-.09-.97-1.95-1.76-3.29-2.71-1.29-.39-2.28-.7-3.27-1.02-.4-.75-.8-1.49-1.07-2.95.28-5.13,3.23-10.29-3.13-12.98-.31-.12-.57-.3-.86-1.18.17-4.37,2.67-8.74-2.89-10.92-.42-1.07-.83-2.13-1.1-3.9.5-4.87,2.77-9.56-2.94-12.08-.76-3.67-1.36-7.38-2.34-10.99-.41-1.5-1.61-2.79-2.45-4.17-.43.14-.85.28-1.28.41-.16,3.06-.49,6.12-.47,9.18.11,19.14.24,38.29.52,57.43.06,3.92-1.53,5.41-5.33,5.31-5.99-.14-11.99-.19-17.98-.02-3.54.1-5.06-.97-5.06-4.81.07-42.45-.03-84.91.14-127.36,0-1.37,2.32-3.91,3.58-3.92,11.07-.15,22.15.15,32.97.78-9.21.73-18.17,1.06-27.13,1.22-7.3.13-7.32.04-7.32,7.18-.01,27.48,0,54.95,0,82.43,0,11.99.16,23.98-.08,35.97-.09,4.64,1.24,6.83,6.19,6.44,3.97-.31,8-.25,11.98-.01,4.26.26,5.94-1.29,5.9-5.71-.17-18.32-.06-36.63-.11-54.95,0-1.51-.42-3.01-.65-4.51-.5,0-1.01,0-1.51,0-.26,1.8-.73,3.6-.73,5.4-.06,14.82.04,29.64-.06,44.46-.09,13.68,2,12.16-12.71,12.34-3.88.05-5.36-1.5-5.29-5.33.15-8.16.04-16.32.04-24.48,0-29.97.08-59.95-.08-89.92-.02-4.75,1.53-6.62,6.34-6.36,5.65.3,11.33.3,16.98,0,4.78-.25,7.18,1.09,6.94,6.37-.07,1.5,1.99,3.1,3.37,4.73,1.29.39,2.27.7,3.26,1.02Z"/>
  <path class="cls-21" d="M318.8,156.02c.55,2.87-.14,4.36-3.55,4.22-5.99-.25-11.99-.22-17.99-.08-3.79.09-5.38-1.28-5.37-5.25.08-41.99.06-83.98-.02-125.97,0-3.62,1.34-5.16,4.99-5.11,8.66.12,17.33.17,25.99.02,5.9-.11,6.64,4.42,7.98,9.12-.24,4.83-3.1,9.7,2.99,12.09.36.44.71.88,1.05,1.98.07,3.66.15,6.67.1,10.05-.04,4.42-.17,8.5.29,12.52.14,1.22,1.9,2.26,3.1,3.67,1.59,1.84,3,3.4,4.42,5.31.24,2,.48,3.64.71,5.28.07.5.14,1,.08,2.1.66,1.44,1.45,2.27,2.24,3.1.34.75.68,1.5,1.01,2.93-.2,5.11-3.18,10.28,3.22,12.98.61,1.09,1.23,2.18,2.22,3.77,3.68,1.6,5.34-.15,5.42-3.06.1-3.27-.51-6.57-.81-9.86.34-.74.68-1.48,1.51-2.62,5.32-3.63,3.54-8,2.54-12.24.31-.79.62-1.58,1.37-2.85,1.42-1.52,2.96-2.41,3.28-3.63,1.29-4.79,2.19-9.68,3.33-14.98.09-3.46.09-6.48.09-9.49,0,0,0-.04.18-.26.33-.75.48-1.29.63-1.82,0,0,0-.11.36-.24,1.13-1.33,1.91-2.54,2.77-3.74.1,0,.28.04.65,0,6.06-2.78,2.83-7.17,2.58-11.21.65-.38,1.11-.59,1.96-.85,4.46-1,8.49-2.2,12.61-2.82,2.93-.44,5.99-.09,8.99-.08,7.15.03,7.27.13,7.27,7.28,0,36.16,0,72.33,0,108.49,0,1.83-.08,3.67,0,5.5.15,3.43-1.5,4.76-4.84,4.73-15.34-.11-12.94,1.41-13.15-12.42-.03-2.17,0-4.33,0-6.5,0-13.17.05-26.33-.08-39.5-.02-1.9,1.05-5.22-3.42-4.47-.64-.07-1-.12-1.37-.17-.47-.7-.94-1.4-2.03-1.85-5.63,3.24-4.06,7.63-3.1,11.9-.92,5.13-.17,11.8-3.15,15.03-4.34,4.71-3.31,9.56-4.73,14.36-.97-3.59-1.4-7.07-1.82-10.55-.69,0-1.39.02-2.08.03-.07,4.77-.15,9.53-.35,14.67-.02,4.07.09,7.78.19,11.48-.37,1.08-.73,2.16-1.52,3.64-1.3,1.58-2.97,2.8-2.91,3.93.21,3.59-1.26,4.16-4.45,3.9-4.1-.34-8.28-.36-12.38,0-3.23.28-4.55-.39-4.53-3.89,0-1.21-1.99-2.43-3.06-3.65-.4-1.07-.8-2.15-1.06-3.93-.3-4.45-.74-8.19-1.04-12.32.27-4.03,3.46-8.4-2.47-10.93-1.38-1.36-2.56-2.47-3.75-3.57,0,0-.11-.01-.19-.35-.14-.52-.2-.71-.18-1.34-.18-4.42,2.37-9.26-3.35-11.56-.39-1.08-.78-2.15-1.01-3.94.04-4.69-.09-8.66-.31-13-2.32-4.1-4.21-3.6-5.83.11,0,0-.06.46-.52.74-4.18,1.15-3.49,4.2-3.5,6.74-.06,15.15.02,30.31-.05,45.46-.06,13.22,1.66,11.76-12.09,11.99-4.21.07-5.96-1.29-5.95-5.72.11-38.3.1-76.6.01-114.9-.01-4.18,1.68-5.59,5.68-5.47,5.99.19,11.99.11,17.98,0,1.54-.03,3.06-.62,4.59-.95-.07-.5-.13-1.01-.2-1.51-1.56-.15-3.12-.42-4.68-.44-6.33-.05-12.66-.03-18.98-.02-7.28.01-7.31.03-7.31,7.17,0,39.13,0,78.27,0,117.4,0,1.17-.39,2.57.13,3.44.87,1.47,2.23,3.58,3.52,3.69,5.96.47,11.97.45,17.96.33,1.06-.02,2.1-1.34,3.15-2.05M373.56,116.34v-7.4c-3.29,4.45-3.12,5.98,0,7.4Z"/>
  <path class="cls-21" d="M779.01,46.98c1.76,9.59,7.93,18.58,3.92,28.97-2.23,5.77-4.41,11.56-6.94,17.51-.59.24-.8.4-.94.63,0,0-.01-.06-.17.09-.4.37-.62.6-.83.84-3.42,3.3-6.84,6.6-11.35,10.95,1.39,2.06,3.45,4.95,5.3,7.97.76,1.25,1.04,2.79,1.11,4.34,6.06,6.14,9.15,14.26,12.9,22.61.37.71.54.91.74,1.09,2.76,4.77,5.51,9.54,7.9,14.86-2.83.76-5.28,1.04-7.74,1.15-8.58.36-17.17.66-25.75.99,0,0-.21-.26-.23-.43-.02-.17-.07-.15-.07-.15-.46-.64-.93-1.27-1.6-2.43-.21-.52-.22-.88-.22-.88-2.01-3.79-4.13-7.52-5.99-11.38-2.23-4.63-4-9.49-6.4-14.02-2.86-5.4-6.11-10.61-9.37-15.78-.55-.86-2.59-1.85-2.99-1.54-1.12.87-2.45,2.38-2.45,3.64-.01,12.8.06,25.61.48,38.4.15,4.7-1.43,6.16-6.05,5.93-7.14-.36-14.31-.22-21.46-.08-3.68.07-5.06-1.5-5.06-5.06.05-42.11.05-84.22.02-126.33,0-3.13.89-5.13,4.5-5.11,13.81.06,27.63.03,41.44.08.6,0,1.19.46,1.67,1.18-2.09.67-4.06,1.02-6.04,1.03-11.33.06-22.66.12-33.99-.02-3.82-.05-5.52,1.31-5.34,5.24.19,4.16.04,8.33.04,12.49,0,35.99.07,71.97-.08,107.96-.02,4.75,1.47,6.63,6.3,6.35,5.48-.32,11-.22,16.49-.03,3.91.13,5.3-1.48,5.26-5.32-.14-11.83-.03-23.66-.09-35.49,0-1.46-.48-2.92-.73-4.37-.51.01-1.01.02-1.52.03-.22,1.85-.63,3.7-.64,5.55-.07,10.5-.1,20.99,0,31.49.03,3.55-1.28,5.26-4.97,5.13-3.83-.14-7.67-.18-11.49.02-4.07.21-5.61-1.43-5.6-5.54.09-38.32.09-76.64,0-114.96,0-4.08,1.47-5.64,5.57-5.58,12.16.17,24.32.08,36.49.41.34,1.17.68,2.03,1.01,2.89.32-.07.64-.13.96-.2,0-.99,0-1.99.36-2.99.84-.01,1.32-.01,1.93.11.3.29.48.46.62.93,1.26,1.17,2.47,2.45,3.9,2.79,2.67.65,5.46.76,8.12,1.33.64.75,1.37,1.26,2.28,1.93.4.38.61.62.74,1.18-1.17,4.47,1.16,4.41,4.3,3.68.43.02.6.03.67.32-2.58,4.72.12,4.31,3.33,3.68.43.02.6.03.67.31-.33,1.2-.56,2.12-.9,3.49,1.74-.36,2.83-.59,3.93-.39.36,2.83.71,5.24.98,7.95-.41,1.51-.72,2.72-1.04,3.93.61.17,1.23.35,1.84.52.42-1.62.85-3.24,1.27-5.28.34-3.13.68-5.84,1.03-8.55M741.53,92.32c1.01-.05,2.01-.11,3.02-.16-1.19-.72-2.37-1.44-4.48-2.14-3.74.14-7.47.29-11.21.43l.14,2.59c4.01-.34,8.01-.69,12.53-.72M750.89,76.87c2.93-2.62,4.26-12.31,2.03-16.02-.52-.86-1.78-1.29-3.06-2.54-1.81-6.28-7.03-8.53-12.5-10.29-5.16-1.66-9.41.1-9.45,3.97-.1,10.65.1,21.31.21,31.97.03,2.81,1.46,4.78,4.3,4.1,4.67-1.13,9.31-2.57,13.68-4.52,1.23-.55,1.38-3.36,2.23-5.04.32-.63,1.22-.98,2.56-1.64M723,71.49q0,13.21,2.04,15.22c1.85-5.9,1.26-35.01-2.04-37.76v22.54M758.56,100.07c4.12,3.57,3.99-2.66,6.5-2.81-.09-.86-.17-1.71-.26-2.57-1.63.76-3.36,1.37-4.85,2.34-.71.46-1,1.59-1.39,3.04M734.4,43c-1.86.27-3.72.54-5.59.81.07.46.14.92.2,1.38h10.04c.04-.48.08-.95.12-1.43-1.32-.25-2.63-.5-4.77-.76M753.15,138.37c.14-1.27.29-2.54.43-3.82-.89.13-1.77.26-2.66.39.53,1.18,1.05,2.35,2.23,3.42M750.5,128.54c-1.05-.55-2.11-1.1-3.16-1.65-.19,1.01-.38,2.02-.56,3.03,1.2-.25,2.4-.49,3.72-1.38M769.19,127.04c-1.08.11-2.15.22-3.23.34.26.66.51,1.32.77,1.98.89-.58,1.78-1.17,2.47-2.31M774.45,75.77c.74.54,1.48,1.07,2.22,1.61.21-.55.42-1.09.64-1.64-.89-.17-1.77-.35-2.86.03M773.39,135.6c-.87-.18-1.74-.37-2.61-.55.09.71.18,1.42.27,2.14.76-.34,1.53-.68,2.33-1.59M724.41,91.61c-.43-.18-.85-.36-1.28-.54l-.26.8c.47.04.94.08,1.54-.26M776.01,143.86c-.27-.09-.54-.18-.81-.27-.01.27-.02.53-.03.8.27-.07.55-.15.84-.54M759,115.83c.16.22.33.44.49.66.18-.21.36-.42.53-.63-.27-.09-.54-.18-1.02-.03M768.01,91.86c-.27-.09-.54-.18-.81-.27-.01.27-.02.53-.03.8.27-.07.55-.15.84-.54M751.94,47.77c.06,0,.12,0,0,0M739.77,112.06c.12-.09.25-.17.37-.26-.12.02-.24.05-.37.26M751.88,88.2c.11-.06.21-.12.32-.17-.08-.09-.16-.18-.24-.27-.07.1-.14.2-.09.44M756.23,79.94l-.37.26c.12-.02.24-.05.37-.26Z"/>
  <path class="cls-9" d="M232.06,26.82c6.06-2.1,8.45,3.51,11.56,6.31,5.26,4.74,10.96,9.59,12.13,17.5.29,1.98,2.12,3.73,3.08,6.33-.01,4.44.13,8.14.26,12.32,0,15.63.01,30.78-.14,46.29-.08,4.05,0,7.75.09,11.44-2.43,6.6-4.12,13.58-10.22,18.18-.81.61-.78,2.31-1.56,3.4-3.54-3.53-5.68-2.42-7.56,1.52-4.42,1.72-8.48,4.55-12.6,4.65-12.69.31-25.41-.43-38.22-1.09-5.36-5.11-10.62-9.9-15.88-15.11-.14-2.08.34-4.23-.52-5.3-3.43-4.26-3.64-9.12-3.61-14.17,0-1.09-.69-2.17-1.01-3.28-.97-3.42-2.47-6.8-2.75-10.28-.46-5.79.7-11.79-.3-17.45-2.02-11.46,5.23-21.42,4.39-32.56-.04-.58.38-1.29.78-1.79,4.79-5.96,9.91-11.68,14.36-17.88,3.85-5.36,8.86-7.02,15.06-6.92,8.99.14,17.99.16,26.98-.07,1.91-.05,3.79-1.34,5.68-2.06M225.84,50.32c-.67-3.48-2.9-4.24-6.03-4.21-1.92-3.75-10.7-4.58-15.25-1.21,1.22.67,2.32,1.27,2.82,2.17-3.52,2.21-7.47,3.9-10.14,8-.72.98-1.45,1.96-2.13,3.59,0,.43,0,.86-.4,1.9-.18,1.19-.36,2.38-.69,3.99,0,0-.1.44-.66.69-1.03.94-2.05,1.87-3.88,2.93-.82,1.43-2.34,2.85-2.36,4.29-.18,14.41-.19,28.83.03,43.24.02,1.44,1.92,2.85,3.3,4.55.22.2.4.43.55,1.54.97,2.27-2.43,7.69,4.64,5.86,0,0,.34.22.21.93-1.25,3.79.81,4.59,4.29,5.03,2.27,1.18,4.54,2.36,6.31,3.92-2.13,1.35-2.8,2.84.35,3.27,3.06.42,6.22.2,9.34.15,3.67-.06,3.89-1.67,2.11-4.83,3.39-.71,5.6-2.84,6.99-5.9,1.56-3.44,3.07-6.91,5.16-10.64,1.11-1.21,2.22-2.42,4.13-3.76.82-1.27,2.32-2.52,2.34-3.8.17-13.43.18-26.87-.05-40.3-.02-1.24-1.97-2.45-3.34-3.94-.2-.19-.37-.4-.49-1.58,0-1.67-.08-3.34.03-5,.24-3.87-1.36-5.67-5.27-4.97,0,0-.01.07.21-.64.68-2.1,1.33-4.18-2.11-5.27Z"/>
  <path class="cls-4" d="M1004.96,53.94c.11-.31.3-.57,1.15-.91,6.35-3.2,3.21-7.91,2.83-12.11.35-1.06.7-2.13,1.44-3.59,1.37-.73,2.36-1.05,3.74-1.43,1.22-1.14,1.94-2.33,2.9-3.26,1.34-1.3,2.9-3.47,4.31-3.43,8.36.23,17.09-2.18,25.18,2.82.68.33,1.11.6,1.39,1.25-.35,3.14-.92,5.92-.63,8.62.31,2.88,1.99,3.16,3.87.87.29.81.58,1.63.74,3.19-.36,3.81-.97,6.92-.68,9.94.14,1.45,1.98,2.73,3.34,4.21,1.29.4,2.29.68,3.29.96.21.29.43.59.87,1.39-.07,4.24-2.38,8.55,3.13,10.61.39.7,1.18,1.45,1.1,2.1-.61,5.01,1.71,9.04,3.93,13.8-.34,2.49-.62,4.25-.69,6.01-.11,2.87-.08,5.74,3.89,6,.33.08.59.26.84,1.16.18,4.29-3.44,9,2.92,10.93.5,1.65,1.06,3.29,1.5,4.96.63,2.37,1.19,4.76,1.46,7.74-2.84,5.4-2.39,8.1,1.46,10.56,1.33,1.41,2.5,2.55,3.68,3.68.33.47.66.94.87,2.05-.09,4.42-3.15,9.19,3.21,10.93.35.74.69,1.48.98,2.9-1.56,1.31-3.05,2.45-4.57,2.48-6.29.14-12.64-.52-18.88.05-3.82.35-6.35-.55-8.51-3.4-.66-1.42-1.32-2.84-1.83-4.98.02-4.05-.11-7.38-.22-11.19.01-2.42.44-4.49-.1-6.27-.51-1.67-2.03-3.03-3.41-4.73-2.01-.7-3.72-1.59-5.44-1.61-9.42-.14-18.84-.16-28.26.03-1.84.04-3.66,1.17-5.88,1.86-4.29,3.4-4.21,8.76-.23,10.96-.48,2.77-.87,5.57-1.49,8.31-.26,1.15-.98,2.19-1.83,3.28-.33,0-.48-.28-.44-.69.03-3.3.03-6.19.03-9.09-.96,0-1.93,0-2.89,0,0,3.41,0,6.82-.11,10.55-.2,1.45-.45,2.6-.35,3.72.23,2.63-.87,3.46-3.46,3.4-6.08-.15-12.17-.14-18.25,0-2.61.06-3.51-.87-3.43-3.47.07-2.41-.35-4.84-.55-7.27.33-.74.66-1.49,1.51-2.58,6.14-3.1,2.75-7.54,2.56-11.37.76-.91,1.52-1.81,2.9-2.72,4.16,1.36,5.05-.51,5.16-3.59.13-3.46-.88-8.1.94-10.13,4.15-4.64,3.02-9.07,1.93-13.93.16-2.34.26-4.69.52-7.02.12-1.09.56-2.15,1.58-3.41,4.43-2.39,5.05-5.74,2.93-12.13,0,0,.09-.48.45-.82,1.74-1.61,3.13-2.88,4.88-4.26,4.69-3,2.01-7.41,2.88-11.43.03-3.74-.06-7.12-.15-10.5M1042.72,106.84c3.05-3.12,3.3-10.56-.78-13.81,0,3.69,0,7.37-.6,10.78-1.45-5.6-2.9-11.2-4-17.52-.44-3.72-.88-7.44-1.03-11.95.22-3.56.53-7.12.62-10.68.07-3-1.55-3.67-4.69-2.67-1.67.04-3.34.07-5.7-.12-1.14.68-3.33,1.51-3.26,2.03.5,3.79-2.81,8.64,2.64,11.75-.8.85-1.61,1.69-3.14,2.31-2.72-1.02-3.69.33-3.72,2.81-.05,3.8-.03,7.6-.31,12.15-.2,4.09-.4,8.17-.7,12.87.33.73.66,1.45,1.2,2.91,1.03.7,2.03,1.96,3.08,1.99,5.24.19,10.51.24,15.74-.07,1.35-.08,2.61-1.68,4.66-2.76Z"/>
  <path class="cls-21" d="M62.88,150.06c-.44-.65-.88-1.29-1.45-2.41.71-3.46.24-5.16-3.37-3.77-1.69-3.04-3.39-6.09-5.08-9.8-.02-.85-.03-1.04-.05-1.23-.04-.39-.07-.78-.08-1.76-.5-1.39-1.04-2.19-1.57-2.99-.76-1.46-1.51-2.91-2.09-5.1.38-1.7.73-2.67.74-3.63.04-18.05.06-36.11,0-54.16,0-1.42-.7-2.83-1.08-4.25.38-1.09.76-2.17,1.62-3.6,1.49-.34,2.51-.35,3.53,0,.67,1.51,1.33,2.67,1.98,3.83.51-.52,1.01-1.05,1.52-1.57-1.01-.85-2.01-1.71-3.04-2.54-.11-.09-.32-.05-.48-.47-.32-2.45-.65-4.49-.97-6.54.18-.29.36-.57,1.14-.96,1.68-.44,2.77-.78,4.21-1.19,3.55-2.3,3.78-4.25-.29-5.87-.08-.09-.25-.25-.25-.35,0-.1-.08-.29-.08-.29,2.23-2.52,4.46-5.04,7-7.28.29,1.14.27,2.01-.08,2.94-.94.92-1.55,1.77-2.16,2.63.54.24,1.07.48,1.61.72.29-1.14.59-2.28,1.25-3.43,1.46-1.34,2.54-2.66,4.04-3.98,2.22-.24,4.03-.48,5.83-.72-2.73-2.66-5.02-3.2-6.64.73-1.2-.03-2-.06-2.8-.08,2.2-1.64,4.37-3.3,6.61-4.89.36-.25,1.17,0,1.41-.28,5.32-6.37,12.57-3.35,19.03-3.79,5.28-.36,10.6-.2,15.9-.03,1.68.06,3.33.9,4.68,1.71-11.73.41-23.14.49-34.55.56-.03.54-.07,1.09-.1,1.63.67.35,1.34.99,2.02.99,9.96.08,19.92.18,29.88-.03,1.14-.02,2.24-1.87,3.36-2.87,1.86.83,3.73,1.67,5.51,2.97-1,1.22-1.91,1.99-2.82,2.75.76.47,1.51.94,2.2,1.73-1.28,5.51,3.88,4.68,6.1,7.65.45-1.88.7-2.93,1.26-3.98.72-.03,1.13-.04,1.55-.06,1.97,2.96,4.52,5.7,5.78,8.94,2.25,5.77,3.71,11.84,5.6,18.08h-30.04c-.7-6.83-1.55-13.55-8.89-17.49-2.69-4.7-5.43-4.67-8.19-.44,0,0-.06-.01-.21.12-.35.34-.54.56-.71.8-5.09,3.4-8.33,8.17-10.15,13.94-.48,1.51-.81,3.08-1,4.65-.49,4.04-.87,8.09-1.64,11.87-.35-5.7-.35-11.13-.35-16.56l-1.71-.09c-.36.47-1.03.94-1.04,1.42-.13,5.59-.29,11.19-.09,16.77.04,1.03,1.69,2,2.6,3-.59,3.97-1.46,7.92-1.65,11.91-.1,2.1,1.01,4.26,1.28,6.8-1.03.71-1.77,1.02-2.88,1.32-1.54.73-2.72,1.45-3.9,2.17,1.42.27,2.85.54,4.28,1.28.08,6.09.15,11.7.21,17.32l2,.02c.57-3.92,1.14-7.85,1.7-11.77.41,1.33.94,2.64,1.21,4,.59,2.97,1.16,5.96,1.48,8.97.09.86-.68,1.82-1.13,2.94,3.69,3.38,7.5,6.88,11.18,10.74-.72.86-1.31,1.35-1.9,1.83.76.51,1.52,1.02,2.22,1.86.48,1.62,1.03,2.92,1.58,4.21.82-1.51,1.65-3.03,2.89-4.55,2.51-.24,4.61-.47,7.86-.83-1.72-1.63-2.47-2.34-3.21-3.04,5.47-4.14,8.22-9.64,9.22-16.44.63-4.33,4.65-5.65,9.04-3.46-1.55.72-3.13,1.21-4.7,1.7.01.43.02.86.03,1.3,1.45.27,2.91.53,4.37,1.1.3,1.03.58,1.75,1.34,3.69.35-2.21.49-3.09.98-3.99.81-.03,1.28-.05,2.12.07,3.18.34,5.99.8,8.78.68,6.73-.28,6.7-.4,5.04,6.51-.12.49.42,1.13.65,1.7,0,0,.05.48-.33.82-4.16,1.67-2.85,4.61-2.55,7.23-3.29,4.43-6.43,9-9.98,13.22-1.03,1.22-3.24,1.45-5.5,2.43-1.92,1.53-3.25,2.77-4.57,4.01-.76.43-1.52.86-2.99,1.11-9.73-.4-18.76-.72-27.79-.79-2.74-.02-5.48.63-8.21.98-.8-.31-1.6-.62-2.8-1.4-1.51-1.23-2.62-2-3.74-2.77,0,0-.27-.08-.32-.59-.27-4.85-3.46-4.21-6.25-4.22M71.26,97.37l2.36.74v-13.22c-.84,0-1.67,0-2.51-.01,0,3.91,0,7.82.15,12.5M77.48,128.07c-.58-.76-1.16-1.53-1.74-2.29-.4.77-.81,1.54-1.21,2.31.9.17,1.79.33,2.95-.02M131.89,127.57c-.17.63-.33,1.25-.5,1.88.48-.02.95-.04,1.43-.05-.14-.62-.28-1.24-.93-1.82M76.09,152.83c-.15-.34-.29-.68-.44-1.02-.28.28-.57.57-.85.85.34.14.68.29,1.29.16M80.82,47.61c-.27.08-.55.15-.82.23.16.22.33.44.49.66.18-.21.35-.42.33-.89M128.18,48.39c.27-.08.55-.15.82-.23-.16-.22-.33-.44-.49-.66-.18.21-.35.42-.33.89M107.61,139.18c.08.27.15.55.23.82.22-.16.44-.33.66-.49-.21-.18-.42-.35-.89-.33M76.18,56.39c.27-.08.55-.15.82-.23-.16-.22-.33-.44-.49-.66-.18.21-.35.42-.33.89M79.75,32.09c.19-.15.38-.29.58-.44-.2-.16-.39-.32-.59-.48-.07.24-.13.49.01.92M84.2,44.12c-.15-.03-.29-.06-.44-.09.1.07.2.14.44.09M111.77,48.06c.12-.09.25-.17.37-.26-.12.02-.24.05-.37.26M112.23,135.94c-.12.09-.25.17-.37.26.12-.02.24-.05.37-.26Z"/>
  <path class="cls-11" d="M598.28,25.03c.64-.47,1.29-1.34,1.93-1.34,20.81,0,41.61.16,62.42.07,4.06-.02,5.85,1.17,5.61,5.42-.25,4.64-.15,9.32,0,13.97.12,3.62-1.37,5.15-5.02,5.09-9.82-.16-19.65,0-29.46-.29-4.4-.13-5.95,1.48-5.8,5.82.24,6.98.18,13.99-.02,20.97-.11,3.94,1.54,5.35,5.35,5.27,8.49-.19,16.98-.04,25.47-.26,3.78-.1,5.61,1.15,5.47,5.14-.17,4.82-.18,9.66,0,14.48.14,3.74-1.42,4.96-5.08,4.86-8.65-.22-17.31-.03-25.97-.19-3.86-.07-5.34,1.48-5.24,5.33.19,6.99.23,13.99.01,20.97-.12,4.04,1.23,5.79,5.44,5.7,9.82-.22,19.64-.06,29.46-.29,3.87-.09,5.51,1.3,5.36,5.22-.18,4.82-.11,9.65-.01,14.48.06,3.01-.96,4.79-4.25,4.79-21.64-.02-43.28-.01-64.91-.04-.25,0-.5-.37-.4-1,2.82-.71,5.29-1.2,7.77-1.21,15.16-.07,30.32.09,45.47-.07,16.41-.17,13.73,2.68,14.11-14.36.09-4.07-1.33-5.68-5.49-5.59-9.49.2-18.99.04-28.48.1-1.34,0-2.68.39-4.01.6-.01.48-.03.96-.04,1.45,1.81.3,3.63.83,5.44.85,7.99.1,16,.3,23.98-.04,5.64-.24,5.62,3.08,5.61,7.06,0,3.98.03,7.16-5.61,7.07-16.99-.26-33.98-.18-50.97-.04-4.18.03-5.49-1.66-5.48-5.66.09-38.31.09-76.62,0-114.93-.01-4.19,1.67-5.5,5.67-5.47,16.99.13,33.98.18,50.97-.02,5.24-.06,5.51,2.87,5.4,6.74-.11,3.71.57,7.53-5.28,7.35-7.99-.26-15.99-.1-23.98-.02-1.65.02-3.3.47-4.95.73,0,.51,0,1.01.01,1.52,1.66.23,3.32.64,4.99.66,6.16.08,12.33.11,18.49.02,15.88-.23,13.3,2.41,13.76-13.76.14-4.91-1.72-6.28-6.41-6.23-17.65.2-35.31.13-52.97.04-2.8-.01-5.59-.63-8.39-.97M661.96,97.21c0-3.49-.1-6.99.03-10.48.12-3.43-1.43-4.76-4.79-4.72-8.15.1-16.3,0-24.46.07-1.32.01-2.64.48-3.95.74l.03,1.47c1.66.24,3.32.67,4.98.69,5.66.09,11.31.03,16.97.04,8.28,0,8.21.15,8.3,8.3.04,4.43-1.73,5.86-5.95,5.72-6.48-.22-12.98-.11-19.46-.01-1.62.02-3.23.51-6.19,1.01,1.89,1.12,2.41,1.71,2.94,1.71,9.48.09,18.96.22,28.43-.03,1.06-.03,2.07-2.34,3.12-4.5M625.92,133.63c-.04-9.83.29-19.68-1.33-29.48-1.32,3.02-1.56,6.04-1.58,9.06-.05,6.48-.08,12.96.11,19.43.03,1.05-.72,5.22,2.81.99M622.98,53.82c0,4.3,0,8.6,0,12.9q0,10.22,2.68,13.1c.45-10.89.42-20.88.12-30.86-.7-.03-1.4-.06-2.1-.09-.23,1.35-.47,2.71-.7,4.95Z"/>
  <path class="cls-16" d="M834.62,28.77c-.02-.35.11-.63,1.08-.77,9.81.38,18.94.83,28.08.94,3.78.04,7.56-.64,11.51-.8.36.65.56,1.1.82,1.95,2.35,1.22,4.65,2.04,6.93,2.88-.02.03,0-.04.01.34,1.34,1.46,2.67,2.55,3.97,3.65-.03.01.02-.03.03.35.11,3.64,2.42,3.7,4.79,3.67.06.42.11.84.04,1.95-.47,3.82-2.97,7.6,2.61,9.09.66.36,1.08.64,1.36,1.28-.61,4.62-3.03,5.99-7.19,5.75-5.22-.29-10.48-.03-15.69-.02.03,0-.03.03-.01-.37-.26-1.92-.54-3.44-.81-4.96-.43,0-.86.02-1.29.03-.31,1.13-.61,2.26-.92,3.39-1.38-2.37-2.76-4.74-4.14-7.11.3-.21.61-.42.91-.62-1.42-.34-2.99-.41-4.22-1.1-1.86-1.04-4.06-3.95-5.11-3.53-3.53,1.4-6.8,3.68-9.82,6.07-3.6,2.84-2.47,8.17-5.88,11.87-1.45.7-2.43,1.02-3.82,1.39-1.22,1.5-2.73,2.93-2.75,4.38-.17,15.62-.2,31.24.03,46.86.02,1.55,2.04,3.08,3.43,4.69,1.27.39,2.25.71,3.22,1.03.4,1.07.8,2.15,1.02,3.9-1.21,4.12-.87,6.94,3.2,8.04.33.09.59.27.94,1.1.45,1.62.75,2.7,1.13,4.15,2.28,2.7,11.85,3.87,13.7,1.92.23-.24-.57-1.44-.89-2.2.22-.28.44-.56,1.3-.9,5.1,1.97,6.58-2.04,9.01-4.17,2.62-2.3,1.26-3.28-1.25-3.92.69-2.1,1.93-4.2,1.96-6.31.1-6.98.46-7.43,7.61-5.8-6.03,2.19-7.25,5.37-3.89,10.19q3.19-5.94,10.64-6.08c.33,0,.66-.02,1.35.06,7.47-.45,12.61,1.22,11.39,9.98-2.22,9.54-7.67,16.9-15.8,22.39-3.46-3.66-6.06-3.37-8.37.76-.36.41-.58.63-1.29.83-12.49.02-24.51.04-36.58-.3-1.23-1.59-2.2-3.42-3.63-3.92-5.71-1.99-8.96-6.21-11.78-11.22-1.02-1.82-3.11-3.05-4.75-4.75-.04-.21-.09-.65.12-.97.11-3.88.23-7.47-.2-10.99-.13-1.05-1.79-1.9-2.76-3.28-.33-17.04-.69-33.66-.94-50.27-.02-1.43.63-2.87,1.32-4.44,1.1-1.63,2.34-3.08,2.51-4.65.34-3.07.1-6.21.14-9.63.36-1.07.69-1.83,1.36-2.66,1.1-1.39,1.85-2.71,2.6-4.39.01-1.07.02-1.79.4-2.53.7-.08,1.08-.04,1.34-.2,4.21-2.59,6.41-8.01,12.07-8.68.07,0-.11-2.19-.17-3.36Z"/>
  <path class="cls-8" d="M956.12,130c.03,8.67-.08,16.83.15,24.99.12,4.18-1.38,5.51-5.6,5.34-8.3-.34-16.62-.1-25.3-.1V23.61c9.18,0,17.98.01,26.79,0,3.82,0,4.09,2.46,4.08,5.41-.07,33.5-.09,66.99-.12,100.99M951.01,83.5c0-13.15,0-26.29,0-39.44q0-15.16-14.96-15.07c-6.83.04-7.05.22-7.05,7-.01,37.11,0,74.21,0,111.32,0,.83.04,1.66.02,2.5-.12,3.51,1.49,5.26,5.07,5.2,3.49-.06,6.99.03,10.48,0,6.07-.05,6.43-.39,6.44-6.61.02-21.3,0-42.6.01-64.89Z"/>
  <path class="cls-13" d="M1138.15,133.89c12.96.04,25.92.09,39.43.62.55,6.33.33,12.17.62,17.99.23,4.46-1.56,5.74-5.83,5.7-18.83-.17-37.67-.19-56.5,0-4.53.05-6.15-1.3-6.08-5.98.24-16.33.09-32.67.09-49,0-23.67,0-47.33,0-71,0-6.25.13-6.35,6.51-6.37,3.67-.01,7.33,0,11,0,6.69.01,6.74.06,6.75,6.63.04,33.17.07,66.33-.29,99.42-1.21-2.2-2.73-4.31-2.74-6.44-.16-28.16-.06-56.33-.12-84.49-.03-13.27,1.66-11.78-12.05-12.06-4.68-.1-6.01,1.76-5.99,6.21.12,37.83.06,75.66.08,113.49,0,6.01.39,6.35,6.68,6.36,14.5.02,29,.06,43.5,0,13.09-.06,11.63,1.66,11.87-12.23.08-4.36-1.58-5.9-5.88-5.81-9.33.2-18.67.22-27.99-.09-1.76-.06-3.46-2.02-4.83-3.1.84.05,1.32.1,1.79.15Z"/>
  <path class="cls-6" d="M598.16,25.48c2.91-.12,5.71.5,8.5.51,17.66.09,35.31.17,52.97-.04,4.68-.05,6.54,1.31,6.41,6.23-.46,16.17,2.12,13.53-13.76,13.76-6.16.09-12.33.06-18.49-.02-1.66-.02-3.32-.43-4.99-.66,0-.51,0-1.01-.01-1.52,1.65-.25,3.3-.71,4.95-.73,7.99-.08,16-.24,23.98.02,5.85.19,5.18-3.63,5.28-7.35.11-3.87-.16-6.8-5.4-6.74-16.99.2-33.98.15-50.97.02-4-.03-5.68,1.29-5.67,5.47.09,38.31.09,76.62,0,114.93,0,4,1.3,5.69,5.48,5.66,16.99-.14,33.98-.22,50.97.04,5.63.09,5.6-3.09,5.61-7.07,0-3.98.02-7.29-5.61-7.06-7.98.33-15.99.13-23.98.04-1.82-.02-3.63-.55-5.44-.85.01-.48.03-.96.04-1.45,1.34-.21,2.67-.59,4.01-.6,9.49-.05,18.99.1,28.48-.1,4.16-.09,5.58,1.52,5.49,5.59-.38,17.04,2.3,14.19-14.11,14.36-15.16.16-30.31,0-45.47.07-2.47.01-4.94.5-7.8.88-.47-7.86-.6-15.83-.61-23.8-.01-36.38.02-72.76.15-109.59Z"/>
  <path class="cls-10" d="M1134.24,132c-.04-33.17-.07-66.33-.11-99.5,0-6.57-.06-6.62-6.75-6.63-3.67,0-7.33,0-11,0-6.38.02-6.51.12-6.51,6.37,0,23.67,0,47.33,0,71,0,16.33.14,32.67-.09,49-.07,4.68,1.56,6.02,6.08,5.98,18.83-.2,37.67-.18,56.5,0,4.28.04,6.06-1.24,5.83-5.7-.3-5.82-.07-11.66-.16-17.95.8.41,2.4,1.26,2.44,2.15.23,6.49.16,12.99.13,19.48-.02,3.09-1.74,4.49-4.77,4.49-21.15,0-42.3-.02-63.45,0-4.37,0-5.05-2.61-5.05-6.27.08-39.8.11-79.61.06-119.41-.01-12.4-.82-11.8,11.55-11.61,4,.06,8,.11,11.99-.04,4-.14,5.74,1.52,5.73,5.61-.09,31.98-.12,63.95-.04,95.93,0,2.72.94,5.44,1.48,8.59-.44.38-.92.33-1.9.08-.99-.65-1.48-1.1-1.97-1.55Z"/>
  <path class="cls-2" d="M231.9,26.51c-1.74,1.03-3.62,2.33-5.53,2.37-8.99.22-17.99.21-26.98.07-6.2-.1-11.21,1.56-15.06,6.92-4.45,6.2-9.57,11.93-14.36,17.88-.4.5-.82,1.21-.78,1.79.83,11.14-6.42,21.1-4.39,32.56,1,5.65-.16,11.65.3,17.45.28,3.48,1.78,6.86,2.75,10.28.31,1.1,1.01,2.19,1.01,3.28-.03,5.05.18,9.9,3.61,14.17.86,1.07.38,3.22.49,5.32-.02.45-.08.51-.43.49-1.08-.04-1.8-.06-2.52-.07-.32-.12-.58-.32-.88-1.23-.17-3.1.69-5.99-2.95-6.82-.41-.73-.82-1.46-1.2-2.95.2-3.03.78-5.38.42-7.56-.26-1.53-1.81-2.84-2.78-4.25-.93-3.91-2.47-7.78-2.68-11.72-.43-8.25-.4-16.54-.07-24.8.14-3.65,1.46-7.25,2.75-11.3,4.49-3.97,1.86-8.47,2.26-12.52,3.67-8.36,7.44-16.79,14.65-22.72,5.85-4.81,11.72-9.83,20.33-9.4,8.8.44,17.64-.04,26.45.2,1.83.05,3.62,1.47,5.58,2.58Z"/>
  <path class="cls-17" d="M537.09,92.49c3.4,1.94,4.02,5.28,3.98,9.2-.15,15.66.07,31.32-.14,46.98-.06,4.73,1.48,6.51,6.31,6.4,13.26-.3,11.71,1.14,11.73-11.88.05-35.65.02-71.3.01-106.95,0-7.1-.12-7.2-7.32-7.23-1.17,0-2.33-.01-3.5,0-6.1.08-12.42-1.11-18.1,2.54-1.3-4.81-.11-6.36,4.74-5.89,6.27.62,12.65.22,18.98.18,8.39-.05,8.34-.08,8.35,8.3.06,40.33.18,80.66.14,120.99,0,1.15-1.5,3.28-2.32,3.29-7.62.06-15.25-.24-22.88-.44-.02-21.68-.04-43.35.01-65.49Z"/>
  <path class="cls-22" d="M318.85,155.55c-1.1,1.18-2.14,2.5-3.2,2.52-5.99.12-12,.14-17.96-.33-1.29-.1-2.66-2.22-3.52-3.69-.51-.87-.13-2.28-.13-3.44,0-39.13,0-78.27,0-117.4,0-7.14.03-7.16,7.31-7.17,6.33-.01,12.66-.03,18.98.02,1.56.01,3.12.28,4.68.44.07.5.13,1.01.2,1.51-1.53.33-3.06.92-4.59.95-5.99.11-11.99.19-17.98,0-3.99-.12-5.69,1.29-5.68,5.47.09,38.3.1,76.6-.01,114.9-.01,4.43,1.74,5.79,5.95,5.72,13.75-.23,12.03,1.23,12.09-11.99.07-15.15-.01-30.31.05-45.46,0-2.54-.68-5.59,3.41-6.53.4,21.3.43,42.65.41,64.47Z"/>
  <path class="cls-10" d="M384.09,92.42c.42-.42.78-.36,1.44.16.26,20.96.29,41.46.12,61.95-.02,2.85.53,3.92,3.53,3.75,4.65-.26,9.33-.14,13.99-.16q6.95-.03,6.96-6.92c.04-40.49.03-80.98.19-121.46.01-3.41-1.5-3.92-4.2-3.9-7.33.04-14.67.27-21.99-.07-4.76-.22-6.91,1.37-6.4,6.18-.46.21-.92.42-1.88.87-.9.38-1.29.53-1.75.53-.05-.14-.15-.43-.15-.43.3-.77.89-1.55.87-2.3-.24-8.07,5.14-7.46,10.65-7.26,6.98.24,13.98.24,20.96-.03,4.51-.17,6.26,1.44,6.24,6.03-.12,37.76-.1,75.53-.11,113.3,0,4.33-.02,8.65.11,12.98.11,3.57-1.35,5.16-5.04,5.06-6.15-.17-12.32-.26-18.46,0-4.49.19-5.94-1.88-5.87-5.96.31-17.95.57-35.91.82-53.86.04-2.66-.06-5.32-.04-8.44Z"/>
  <path class="cls-5" d="M482.26,39.96c-1.08-1.55-3.15-3.15-3.08-4.65.24-5.28-2.16-6.62-6.94-6.37-5.65.3-11.33.3-16.98,0-4.81-.25-6.36,1.61-6.34,6.36.15,29.97.08,59.95.08,89.92,0,8.16.11,16.32-.04,24.48-.07,3.84,1.42,5.38,5.29,5.33,14.71-.18,12.63,1.34,12.71-12.34.1-14.82,0-29.64.06-44.46,0-1.8.48-3.6.73-5.4.5,0,1.01,0,1.51,0,.23,1.5.64,3.01.65,4.51.05,18.32-.06,36.64.11,54.95.04,4.42-1.64,5.97-5.9,5.71-3.98-.24-8.01-.3-11.98.01-4.95.39-6.28-1.79-6.19-6.44.24-11.98.08-23.98.08-35.97,0-27.48,0-54.95,0-82.43,0-7.13.03-7.04,7.32-7.18,8.96-.16,17.92-.49,27.26-.92,1.05.95,1.71,2.06,2.21,3.89-.31,4.13-.45,7.55-.59,10.97Z"/>
  <path class="cls-5" d="M743.01,29.05c-12.16-.01-24.33.07-36.48-.1-4.1-.06-5.58,1.5-5.57,5.58.09,38.32.09,76.64,0,114.96,0,4.11,1.53,5.75,5.6,5.54,3.82-.2,7.67-.16,11.49-.02,3.69.13,5.01-1.58,4.97-5.13-.1-10.49-.06-20.99,0-31.49.01-1.85.42-3.7.64-5.55.51-.01,1.01-.02,1.52-.03.25,1.46.72,2.91.73,4.37.06,11.83-.05,23.66.09,35.49.05,3.84-1.35,5.45-5.26,5.32-5.49-.19-11.01-.29-16.49.03-4.84.28-6.32-1.59-6.3-6.35.15-35.99.08-71.97.08-107.96,0-4.17.15-8.34-.04-12.49-.18-3.93,1.52-5.29,5.34-5.24,11.33.14,22.66.07,33.99.02,1.98,0,3.95-.36,6.29-.75,1.15.09,1.94.36,3.03,1.15.38,1.22.44,1.93.51,2.63-.48,0-.96,0-2.13,0-1.13,0-1.57,0-2.01,0Z"/>
  <path class="cls-15" d="M537.01,158.31c7.7-.13,15.32.18,22.95.12.82,0,2.32-2.14,2.32-3.29.04-40.33-.07-80.66-.14-120.99-.01-8.38.04-8.35-8.35-8.3-6.33.04-12.71.43-18.98-.18-4.85-.48-6.04,1.08-5,5.75-1.09.94-2.17,1.53-3.49,2.33.33-2.51.62-5.34,1.58-7.91.42-1.13,2.21-2.45,3.4-2.47,9.49-.18,18.99-.04,28.49-.06,4.1,0,4.9,2.4,4.88,5.89-.08,21.83-.08,43.66-.09,65.48,0,19.83-.08,39.66.1,59.49.04,4.67-1.45,6.77-6.33,6.54-5.65-.27-11.33.06-16.99-.17-1.49-.06-2.94-1.23-4.34-2.22Z"/>
  <path class="cls-3" d="M814.02,65c-.34,1.44-.99,2.88-.97,4.31.25,16.61.61,33.23.82,50.43-.27.79-.44.99-.85.94-1.19-.68-2.15-1.14-3.11-1.59-.71-2.93-1.97-5.85-2.02-8.79-.23-12.42-.12-24.85-.1-37.27,0-1.48-.28-3.27.42-4.38,2.98-4.73,4.16-9.84,4.65-15.15.73,3.95.95,7.73,1.16,11.5Z"/>
  <path class="cls-3" d="M188.98,154c12.71.33,25.42,1.07,38.12.76,4.12-.1,8.18-2.93,12.98-4.64,2.15.23,3.59.58,5.03.93-2.34,1.67-4.51,3.7-7.07,4.92-3.6,1.72-7.43,3.76-11.27,4.01-9.09.59-18.28.72-27.35,0-5-.4-9.83-2.89-14.57-4.81,1.49-.65,2.81-.91,4.13-1.18Z"/>
  <path class="cls-2" d="M259.11,115.22c-.01-15.15-.03-30.3.31-45.89,1.02-.38,1.69-.33,2.36-.27,3.58,15.04,4.03,30.09-.22,45.55-1.1.46-1.77.54-2.44.61Z"/>
  <path class="cls-3" d="M48.54,61.15c.69,1.21,1.39,2.63,1.4,4.05.07,18.05.05,36.11,0,54.16,0,.97-.36,1.94-.74,3.27-.58-.31-1.31-.98-1.31-1.65.07-19.88.2-39.75.65-59.83Z"/>
  <path class="cls-15" d="M841.82,120.69c-.98.04-1.96-.28-3.27-1.13-.32-18.86-.3-37.19-.28-55.52.98-.31,1.97-.63,3.25-1.02-.11,3.13-.82,6.34-.87,9.56-.2,14.21-.26,28.43-.22,42.65,0,1.7.91,3.4,1.39,5.46Z"/>
  <path class="cls-15" d="M1010.26,128.05c1.83-.63,3.65-1.76,5.5-1.8,9.42-.19,18.84-.16,28.26-.03,1.72.02,3.42.91,5.46,2,.06,2.32-.2,4.04-.47,5.77-1.23-6.39-6.03-5.58-10.67-5.45-5.79.16-11.63.44-17.38-.08-5.34-.49-9.02.61-10.5,6.06-.26-2.33-.23-4.4-.19-6.47Z"/>
  <path class="cls-8" d="M816.87,135.02c1.6,1.5,3.69,2.72,4.71,4.54,2.81,5,6.07,9.22,11.78,11.22,1.43.5,2.4,2.33,3.64,4.25.13,1.37.21,2.03.06,2.9-.35.35-.5.49-.64.62-4.04-2.78-8.39-5.21-12.03-8.43-2.91-2.58-4.97-6.13-7.4-10.04-.04-2.21-.08-3.64-.12-5.06Z"/>
  <path class="cls-8" d="M874.05,155c.23-.21.45-.42,1.25-.83,2.66-.16,4.73-.14,6.8-.12-1.62.93-3.65,1.51-4.8,2.85-3.61,4.22-8.32,3.23-12.86,3.25-7.83.03-15.66.12-23.49.06-1.37-.01-2.73-.67-4.31-1.34-.07-.44.07-.58.86-.86,11.31-.1,21.96-.04,32.62-.07,1.91,0,4.35.34,3.92-2.94Z"/>
  <path class="cls-15" d="M876.05,29.7c-.2-.45-.41-.91-1-1.89-2.41-1-4.4-1.81-6.43-1.9-9.91-.44-19.83-.69-29.75-1.01,1.4-.51,2.78-1.44,4.19-1.46,9.25-.14,18.5-.14,27.74-.02,1.49.02,3.04.78,4.45,1.43,2.26,1.05,4.42,2.3,6.69,3.88.07.41.02.75-.4.78-2.11.08-3.8.13-5.49.17Z"/>
  <path class="cls-18" d="M976.45,147.9c.62,2.36,1.04,4.79.97,7.2-.08,2.59.82,3.52,3.43,3.47,6.08-.14,12.17-.15,18.25,0,2.59.06,3.69-.77,3.46-3.4-.1-1.12.14-2.27.71-3.77,1.18-.59,1.87-.8,2.57-1.02,0,0,.15.29.19.44-.41,1.21-1.33,2.31-1.24,3.31.61,6.92-3.78,6.68-8.59,6.45-4.78-.23-9.59-.2-14.36.08-4.69.28-6.9-1.51-6.44-6.28.21-2.14.42-4.28,1.05-6.49Z"/>
  <path class="cls-10" d="M1048.05,32.88c-.43-.27-.86-.53-1.57-1.29.13-4.66-1.9-5.82-5.86-5.8-8.54.03-17.09-.4-25.65-.86-.03-.53-.05-.84-.06-1.14,9.77-.16,19.55-.34,29.32-.45,2.77-.03,4.21,1.27,4.3,4.24.05,1.57.83,3.13.99,5.07-.69.33-1.08.29-1.47.25Z"/>
  <path class="cls-18" d="M899.05,53.97c3.72,1.91,1.06,5.1,1.23,7.61.07.95-2.32,2.92-3.65,2.97-6.95.28-13.96.46-20.88-.15-2-.18-3.77-3.08-5.27-5.04,1.07-.3,1.76-.29,2.46-.28,0,0,.06-.03.11.36,1.06,1.14,2.04,2.5,3.06,2.53,6.3.2,12.62.22,18.92-.02,1.04-.04,2.43-1.5,2.93-2.63.71-1.63.76-3.55,1.09-5.34Z"/>
  <path class="cls-20" d="M838.59,25.05c10.2.17,20.12.42,30.03.86,2.03.09,4.02.9,6.27,1.71-3.55.68-7.33,1.37-11.11,1.32-9.14-.11-18.27-.56-27.84-.97.49-.99,1.42-1.88,2.65-2.92Z"/>
  <path class="cls-18" d="M490.2,147.37c.97-.11,1.96.21,3.29,1.05.91,3.43,1.2,8.76,2.1,8.87,5.93.7,11.99.33,18.01.11.52-.02.98-1.53,1.47-2.34,0,0-.06-.02.32.04,1.08,0,1.78-.07,2.48-.13-.8,3.98-3.1,5.88-7.29,5.69-4.31-.2-8.64-.18-12.95-.04-4.35.14-6.41-1.53-6.22-6.13.09-2.21-.75-4.45-1.19-7.1Z"/>
  <path class="cls-19" d="M991.59,103.71c1.37,4.65,2.5,9.09-1.65,13.73-1.82,2.03-.81,6.67-.94,10.13-.12,3.08-1,4.95-4.9,3.46.4-4.61,1-9.11,1.98-13.53.57-2.54,1.77-4.95,2.77-8.15.09-.98.1-1.21.11-1.45.78-1.33,1.57-2.66,2.63-4.19Z"/>
  <path class="cls-2" d="M76.16,159.37c2.58-.68,5.32-1.33,8.05-1.31,9.03.07,18.06.38,27.45.8.02.52-.33,1.13-.68,1.13-11.55-.06-23.11-.18-34.82-.62Z"/>
  <path class="cls-18" d="M338.23,151.35c1.06.81,3.06,2.03,3.05,3.24-.02,3.51,1.3,4.18,4.53,3.89,4.1-.36,8.28-.34,12.38,0,3.19.27,4.66-.3,4.45-3.9-.06-1.13,1.61-2.35,2.82-3.59.31.27.37.63.26.92q-3.17,8.64-12.7,8.64c-.33,0-.66,0-.99,0-3.46-.04-7.52,1.01-10.17-.46-2.1-1.17-2.47-5.45-3.62-8.75Z"/>
  <path class="cls-2" d="M757.23,159.34c8.49-.7,17.07-1,25.66-1.36,2.46-.1,4.92-.39,7.74-.77-.1.91-.56,2.95-1.02,2.95-10.76-.01-21.52-.25-32.37-.82Z"/>
  <path class="cls-10" d="M1054.78,155.22c2.39,2.65,4.93,3.55,8.75,3.19,6.24-.57,12.59.09,18.88-.05,1.52-.03,3.01-1.18,4.61-2.16,2.93,2.68,1.04,4.39-1.88,4.47-8.57.24-17.18.28-25.73-.28-1.73-.11-3.26-3.23-4.64-5.17Z"/>
  <path class="cls-19" d="M898.88,53.79c-.16,1.97-.2,3.89-.91,5.52-.5,1.13-1.89,2.59-2.93,2.63-6.3.24-12.62.22-18.92.02-1.02-.03-2.01-1.39-3.09-2.52,5.16-.4,10.41-.66,15.64-.37,4.17.23,6.58-1.13,7.52-5.73.9-.33,1.33-.32,1.76-.31.29.16.54.36.95.77Z"/>
  <path class="cls-2" d="M188.88,153.68c-1.22.59-2.54.86-4.18,1.22-1.74-.91-3.31-1.75-4.54-2.95-2.39-2.32-4.59-4.84-6.99-8.01-.17-2.11-.22-3.47-.26-4.84,0,0,.05-.05.08-.08,5.28,4.76,10.54,9.54,15.9,14.65Z"/>
  <path class="cls-22" d="M78.88,110.65c-.57,4.31-1.14,8.23-1.71,12.15l-2-.02c-.07-5.62-.14-11.24-.21-17.7,0-1.59-.02-2.34-.03-3.08.74-.3,1.48-.61,2.52-.95.38,1.31.47,2.66.62,4.7.26,1.19.45,1.7.65,2.22.06.77.11,1.53.16,2.68Z"/>
  <path class="cls-12" d="M138.09,129.7c-.4-.25-.93-.9-.81-1.38,1.66-6.9,1.69-6.79-5.04-6.51-2.79.12-5.6-.34-8.8-1.03-.43-1.19-.46-1.88-.5-2.58,3.2.45,6.42.82,9.61,1.38,2.46.43,6.62.59,6.96,1.75.68,2.37-.71,5.33-1.42,8.37Z"/>
  <path class="cls-6" d="M77.89,81.6c-.98-.62-2.64-1.59-2.67-2.62-.21-5.58-.04-11.18.09-16.77.01-.48.68-.95,1.04-1.42l1.71.09c0,5.43,0,10.86.02,16.76-.02,1.51-.06,2.54-.18,3.96Z"/>
  <path class="cls-20" d="M763,37.02c-.19-.25-.4-.48-.77-1.11-.84-.91-1.53-1.42-2.22-1.92-2.74-.33-5.54-.44-8.21-1.09-1.43-.35-2.63-1.62-3.44-2.77,4.22-.6,7.93-.91,11.65-1.21.76.37,1.52.75,2.69,1.52,1.75,2.41,3.1,4.43,4.04,6.47-1.52.06-2.63.08-3.74.11Z"/>
  <path class="cls-20" d="M834.24,28.76c.44,1.18.62,3.36.55,3.37-5.67.66-7.86,6.09-12.07,8.68-.26.16-.65.12-1.34-.16-.36-1.04-.36-1.75-.36-2.46,2.13-2.2,4.06-4.66,6.47-6.51,1.81-1.39,4.22-1.98,6.75-2.92Z"/>
  <path class="cls-19" d="M887.29,120.93c-.33.01-.66.03-.99.03q-7.45.14-10.64,6.08c-3.36-4.82-2.14-8,4.04-9.85,2.38.15,4.44.49,6.93,1.25.51,1.1.59,1.79.66,2.49Z"/>
  <path class="cls-18" d="M887.64,121.03c-.43-.79-.51-1.48-.62-2.52,2.16.1,4.36.93,6.55.94,6.32.02,7.25.77,6.96,7.02-.07,1.42-.55,2.82-1.17,4.38.89-8.6-4.25-10.27-11.72-9.82Z"/>
  <path class="cls-15" d="M767.15,36.88c-1.35-2.02-2.7-4.03-4.14-6.37,2.69,1.82,5.59,3.81,8.19,6.15,2.31,2.08,4.27,4.54,6.13,7.22-.6.38-.95.36-1.48.24-.18-.1-.56-.26-.74-.54-1.48-1.07-2.77-1.85-4.08-2.61-.03.03.03-.02,0-.37-1.35-1.45-2.66-2.56-3.94-3.66.03,0,.06-.06.06-.06Z"/>
  <path class="cls-12" d="M368.81,59.95c-1.05,4.86-1.96,9.75-3.24,14.54-.33,1.21-1.86,2.1-3.15,3.33,1-5.57,2.31-11.32,4.05-17.44,1.07-.39,1.7-.41,2.33-.43Z"/>
  <path class="cls-12" d="M342.76,78.22c-1.41-1.55-2.82-3.1-4.44-5.4.08-4.1.38-7.46.67-10.82,1,3.79,1.99,7.58,3.03,11.36.25.93.67,1.81.96,3.45-.11.96-.16,1.18-.22,1.41Z"/>
  <path class="cls-20" d="M338.97,61.63c-.27,3.73-.57,7.1-.83,10.91-.99-.67-2.74-1.71-2.88-2.93-.46-4.01-.33-8.09.04-12.47,1.15-.25,1.83-.18,2.5-.11.38,1.41.76,2.82,1.17,4.61Z"/>
  <path class="cls-6" d="M100.64,137.15c1.16.72,1.91,1.43,3.63,3.06-3.25.36-5.35.59-8.26.83-1.88,0-2.94.01-4.01.02-.76-.51-1.52-1.02-2.28-1.53.59-.49,1.18-.98,2.09-1.52,3.02-.32,5.72-.59,8.84-.85Z"/>
  <path class="cls-22" d="M367.01,135.17c.07-4.77.15-9.53.22-14.3.69,0,1.39-.02,2.08-.03.43,3.48.85,6.95,1.47,10.79-.1,1.14-.4,1.92-1.19,3.01-1.19.38-1.89.45-2.58.53Z"/>
  <path class="cls-22" d="M513,96.84c-.07,4.77-.15,9.54-.22,14.31-.69,0-1.39,0-2.08,0-.43-3.48-.86-6.96-1.49-10.79.1-1.14.41-1.92,1.21-3.01,1.19-.38,1.89-.45,2.58-.52Z"/>
  <path class="cls-5" d="M517.92,154.61c-.77.41-1.47.47-2.52.5-.31-4.77-.28-9.5-.24-14.23l2.15-.03c.41,3.14.81,6.28,1.41,9.77-.12,1.45-.43,2.55-.8,3.99Z"/>
  <path class="cls-17" d="M869.65,129.08c2.83.53,4.19,1.51,1.57,3.81-2.42,2.13-3.91,6.14-8.74,4.13,2.03-2.6,4.44-5.21,7.17-7.94Z"/>
  <path class="cls-19" d="M524.93,48.69v14.41c-.87.01-1.74.02-2.61.03-.11-3.41-.23-6.83-.37-10.7.01-1.2.05-1.94.51-3.08,1.1-.49,1.79-.57,2.48-.66Z"/>
  <path class="cls-17" d="M119,33.05c-.76-.47-1.51-.94-2.27-1.4.91-.76,1.82-1.52,3-2.47,4.46.56,6.69,3.45,8.16,7.46-.46.37-.87.38-1.93.33-2.75-1.35-4.85-2.63-6.95-3.92Z"/>
  <path class="cls-6" d="M860.48,137.97c.75.74,1.54,1.95,1.31,2.18-1.85,1.95-11.42.78-13.27-1.9,2.1-.36,3.84-.35,5.58-.35,1.99.03,3.97.06,6.38.07Z"/>
  <path class="cls-20" d="M1047.9,33.27c.55-.34.94-.3,1.62-.23.75,2.97,1.2,5.92,1.63,9.29-1.9,2.71-3.58,2.44-3.89-.44-.29-2.7.28-5.48.63-8.62Z"/>
  <path class="cls-19" d="M814.37,64.86c-.57-3.64-.78-7.42-1.21-11.54-.06-.64.1-.93.8-1.43,1.37-.47,2.19-.74,3.02-1,0,3.11.25,6.24-.1,9.31-.18,1.57-1.41,3.02-2.51,4.65Z"/>
  <path class="cls-22" d="M524,123.09c-.32-2.42-1.12-4.91-.78-7.24.2-1.38,2.22-2.48,3.83-3.72-.07,3.33-.56,6.65-1.45,10.41-.8.47-1.2.5-1.61.54Z"/>
  <path class="cls-11" d="M817.01,50.59c-.87.57-1.7.83-2.83,1.21,1.83-4.5,3.95-9.11,6.46-13.67.37.77.37,1.48.36,2.55-.01,1.07-.02,1.79-.35,2.98-1.09,1.76-1.86,3.05-2.63,4.33-.32.76-.65,1.52-1.01,2.6Z"/>
  <path class="cls-18" d="M759.82,28.59c-3.53.63-7.24.94-11.42,1.22-.64-.18-.82-.35-1.12-.64-.19-.83-.26-1.54-.34-2.61,4.22.33,8.46,1.01,12.88,2.02Z"/>
  <path class="cls-18" d="M356.55,96.02c.62,3.1,1.23,6.39,1.13,9.67-.09,2.91-1.75,4.66-5.31,3.36,2.94-.73,3.65-2.82,3.51-5.75-.11-2.35.22-4.73.67-7.28Z"/>
  <path class="cls-13" d="M1054.25,59.98c-1.07-1.36-2.91-2.64-3.06-4.09-.29-3.02.31-6.13.7-9.59.6.26,1.04.9,1.82,2.14.4,4.24.46,7.89.53,11.54Z"/>
  <path class="cls-18" d="M486.07,131.44c6.27,2.28,3.33,7.44,3.03,12.24-.64-1.53-1.18-3.42-1.62-5.34-.49-2.15-.89-4.32-1.42-6.9Z"/>
  <path class="cls-12" d="M996.55,81.09c2.47,6.26,1.85,9.61-2.25,11.84.38-3.88,1.14-7.79,2.25-11.84Z"/>
  <path class="cls-10" d="M489.99,56.5c-6.42-2.15-3.24-7.43-3.13-12.15.68,1.46,1.25,3.27,1.67,5.1.51,2.2.9,4.43,1.46,7.05Z"/>
  <path class="cls-18" d="M349.94,104.56c-6.32-2.29-3.33-7.46-3.01-12.28.62,1.52,1.14,3.43,1.58,5.35.49,2.16.9,4.35,1.43,6.93Z"/>
  <path class="cls-12" d="M329.91,120.61c1.19.69,2.37,1.79,3.77,3.58-.12,3.43-.46,6.18-.79,8.92-.99-4.03-1.99-8.06-2.98-12.5Z"/>
  <path class="cls-22" d="M503.07,104.6c-.63,2.65-1.24,4.94-2.21,8.62-2.69-4.36-1.57-8.07-1.46-11.93,1.14-.41,1.89-.39,2.64-.37,0,0,0,.03.13.22.32.43.52.65.72.88.07.74.14,1.48.18,2.59Z"/>
  <path class="cls-10" d="M1054.53,60.1c-.35-3.77-.42-7.42-.53-11.52.81,1.42,1.86,3.24,2.47,5.19.66,2.09.91,4.31,1.35,6.88-1,.14-2-.14-3.29-.55Z"/>
  <path class="cls-18" d="M513.13,96.47c-.82.44-1.52.51-2.56.6.31-4.26.97-8.54,1.96-13.02.46,3.88.59,7.97.6,12.42Z"/>
  <path class="cls-18" d="M501.94,100.52c-.65.38-1.41.36-2.54.31-.43-4.09-.48-8.15-.4-12.6.59,1.54,1.08,3.48,1.5,5.42.47,2.15.89,4.31,1.43,6.87Z"/>
  <path class="cls-18" d="M1069.96,100.56c-3.87.15-3.9-2.72-3.79-5.59.07-1.77.35-3.53.73-5.65.68,1.23,1.24,2.79,1.62,4.39.52,2.13.9,4.29,1.44,6.84Z"/>
  <path class="cls-18" d="M258.95,115.57c.83-.43,1.5-.5,2.51-.6-.36,3.88-1.06,7.79-2.09,11.87-.41-3.52-.49-7.22-.42-11.27Z"/>
  <path class="cls-18" d="M523.79,123.4c.61-.34,1.02-.38,1.73-.44-.38,4.25-1.06,8.53-2.06,13.01-.17-3.95-.02-8.1.33-12.57Z"/>
  <path class="cls-18" d="M366.88,135.54c.82-.44,1.51-.52,2.56-.61-.33,3.91-1.02,7.83-2.03,11.92-.44-3.54-.55-7.25-.52-11.32Z"/>
  <path class="cls-18" d="M482.56,40.03c-.16-3.5-.02-6.92.32-10.69.67,1.2,1.22,2.74,1.6,4.33.51,2.16.89,4.36,1.34,6.96-.98.11-1.97-.21-3.25-.6Z"/>
  <path class="cls-18" d="M1013.73,35.95c-.99.32-1.98.65-3.28,1.03.09-2.81.35-5.71.95-8.53.24-1.16,1.21-2.16,2.3-3.27.45-.03.67.19.54.6-.26,3.67-.38,6.92-.51,10.17Z"/>
  <path class="cls-20" d="M776.03,44.22c.35.02.7.03,1.3-.02.66.68,1.07,1.42,1.57,2.47-.24,3.02-.59,5.72-1.25,8.88-.77.47-1.21.49-1.65.51-.35-2.41-.7-4.81-1.06-7.98,0-1.21,0-1.65.17-2.3.42-.65.67-1.11.91-1.57Z"/>
  <path class="cls-19" d="M1049.03,134.37c.24-2.1.51-3.82.75-5.94,1.05,1.11,2.58,2.47,3.09,4.13.54,1.78.11,3.85-.25,6.23-1.05.35-1.75.26-2.45.18-.37-1.41-.75-2.82-1.14-4.6Z"/>
  <path class="cls-10" d="M1008.6,41.08c.73,4.03,3.86,8.74-2.27,11.84.39-3.86,1.16-7.76,2.27-11.84Z"/>
  <path class="cls-15" d="M335.97,135.08c.45,3.74.89,7.49,1.16,11.59-.69-1.18-1.3-2.68-1.68-4.25-.53-2.16-.88-4.36-1.07-6.97.69-.41,1.14-.39,1.6-.38Z"/>
  <path class="cls-18" d="M525.03,48.31c-.79.46-1.48.55-2.51.67.67-4.22,1.68-8.48,3-12.93.08,3.83-.15,7.86-.49,12.26Z"/>
  <path class="cls-18" d="M516.61,69.15c1.29,4.06,3.07,8.44-2.1,11.78.37-3.79,1.07-7.7,2.1-11.78Z"/>
  <path class="cls-12" d="M1001.85,75.98c-1.39,1.27-2.77,2.54-4.46,3.91.75-3.83,1.81-7.75,3.35-11.46.69,2.67.9,5.11,1.11,7.55Z"/>
  <path class="cls-19" d="M336.12,134.69c-.61.37-1.06.35-1.85.35-.64-.43-.94-.89-1.31-1.64.27-3.04.6-5.78.91-8.95,5.71,1.83,2.52,6.21,2.25,10.24Z"/>
  <path class="cls-19" d="M1009.87,128.11c.35,2.01.32,4.08.26,6.59-.09,1.55-.16,2.66-.36,4.07-4.11-1.9-4.19-7.26.1-10.66Z"/>
  <path class="cls-12" d="M1081.99,139.58c-1.24-.72-2.41-1.85-3.75-3.69.11-3.1.38-5.5.65-7.89,1.06,3.72,2.12,7.44,3.1,11.58Z"/>
  <path class="cls-18" d="M261.78,68.7c-.68.3-1.35.24-2.35.14-.48-3.74-.62-7.44-.59-11.49.67,1.24,1.25,2.82,1.64,4.45.51,2.16.88,4.36,1.3,6.9Z"/>
  <path class="cls-18" d="M360.56,81.1c1.35,4.11,3.13,8.48-2.04,11.83.34-3.82,1.01-7.76,2.04-11.83Z"/>
  <path class="cls-5" d="M1002.22,75.87c-.58-2.33-.79-4.77-1.15-7.59.17-1.13.49-1.88,1.31-2.95,1.2-.39,1.89-.47,2.59-.54-.75,3.66,1.93,8.07-2.76,11.08Z"/>
  <path class="cls-10" d="M1050.17,139.39c.69-.33,1.39-.24,2.43-.12.47,3.37.6,6.7.54,10.39-.66-1.22-1.19-2.77-1.62-4.35-.5-1.82-.91-3.67-1.36-5.91Z"/>
  <path class="cls-15" d="M1085.92,152.58c-6.28-1.33-3.22-6.11-3.06-10.24,1.12,3.04,2.05,6.44,3.06,10.24Z"/>
  <path class="cls-10" d="M324.95,90.37c.13,3.97.26,7.94.21,12.27-.51-1.12-.72-2.63-1.19-4.06-.86-2.63-1.85-5.22-2.55-8.12,1.34-.23,2.43-.16,3.53-.09Z"/>
  <path class="cls-18" d="M333.82,44.69c-6.09-2.03-3.23-6.9-2.96-11.35.67,1.24,1.22,2.82,1.61,4.44.52,2.17.91,4.37,1.35,6.91Z"/>
  <path class="cls-18" d="M326.2,107.36c5.7,1.88,3.15,6.73,3.24,11.16-.17.46-.37.48-.37.48-.95-3.74-1.9-7.49-2.87-11.64Z"/>
  <path class="cls-18" d="M478.19,103.3c5.72,2.17,3.44,6.86,2.91,11.38-.66-1.26-1.19-2.85-1.58-4.48-.51-2.16-.9-4.36-1.33-6.89Z"/>
  <path class="cls-12" d="M980.52,133.93c.6,3.79,3.99,8.22-1.99,11.04.28-3.62.93-7.31,1.99-11.04Z"/>
  <path class="cls-10" d="M1005.1,64.44c-.82.43-1.52.5-2.56.61.33-3.6,1-7.24,2.05-10.99.46,3.27.55,6.65.51,10.38Z"/>
  <path class="cls-18" d="M497.8,84.64c-5.28-1.77-3.62-6.04-2.92-10.31.64,1.23,1.13,2.8,1.55,4.38.48,1.83.91,3.68,1.37,5.93Z"/>
  <path class="cls-19" d="M1078.87,127.71c-.25,2.69-.52,5.09-.79,7.91-3.69-1.77-4.14-4.46-1.28-9.47.9.29,1.48.78,2.07,1.56Z"/>
  <path class="cls-10" d="M1073.81,112.65c-6.36-1.52-2.74-6.22-2.82-10.3.55.82,1.22,2,1.54,3.27.54,2.17.86,4.4,1.28,7.03Z"/>
  <path class="cls-10" d="M530.46,107.99c-.28-2.79-.63-5.79-.14-8.65.31-1.82,1.89-3.42,3.24-5.25-.72,4.49-1.77,9.11-3.1,13.89Z"/>
  <path class="cls-10" d="M379.3,101.87c-1.26-4.13-2.83-8.52,2.53-11.63-.51,3.76-1.37,7.62-2.53,11.63Z"/>
  <path class="cls-10" d="M1061.82,72.64c-5.5-1.65-3.19-5.95-2.87-10.07.57.73,1.33,1.8,1.63,2.98.55,2.19.84,4.45,1.24,7.09Z"/>
  <path class="cls-10" d="M482.23,119.35c5.56,1.76,3.06,6.13,2.77,10.29-.54-.79-1.23-1.94-1.53-3.18-.53-2.2-.84-4.46-1.24-7.11Z"/>
  <path class="cls-5" d="M122.63,118.12c.35.78.38,1.48.43,2.52-.45.37-.91.39-2.05.41-1.12,0-1.56,0-2,0-1.45-.27-2.91-.53-4.36-.8-.01-.43-.02-.86-.03-1.3,1.57-.49,3.15-.98,5.04-1.63,1.1.13,1.88.42,2.97.79Z"/>
  <path class="cls-10" d="M337.82,56.62c-.69.33-1.37.26-2.38.15-.42-3.06-.5-6.06-.48-9.45,1.02,2.71,1.95,5.81,2.86,9.31Z"/>
  <path class="cls-18" d="M897.88,52.63c-.37.39-.81.38-1.56.35-.74-.3-1.16-.58-1.86-1.38-.35-2.85-.42-5.18-.48-7.51.79.86,1.88,1.6,2.31,2.62.73,1.75,1.05,3.67,1.6,5.92Z"/>
  <path class="cls-18" d="M162.75,116.64c.85.97,2.4,2.28,2.66,3.81.37,2.18-.21,4.53-.44,7.24-.53-1.5-1.09-3.41-1.46-5.37-.33-1.73-.44-3.5-.76-5.69Z"/>
  <path class="cls-20" d="M893.7,43.99c.34,2.43.41,4.76.51,7.53-5.31-.98-2.8-4.76-2.32-8.26.61-.04,1.07.3,1.8.74Z"/>
  <path class="cls-18" d="M164.55,56.03c-.07,3.88,2.56,8.37-1.79,11.99.24-3.88.85-7.85,1.79-11.99Z"/>
  <path class="cls-12" d="M810.01,119.42c.85.11,1.81.56,2.99,1.71.24,3.69.27,6.68.2,9.74-.1.07-.29.2-.29.2-.43-1.63-.88-3.26-1.29-4.9-.52-2.13-1-4.27-1.61-6.75Z"/>
  <path class="cls-17" d="M245.37,150.96c-1.71-.25-3.15-.6-4.97-.97,1.18-3.82,3.31-4.93,6.54-1.19-.37.9-.84,1.48-1.58,2.16Z"/>
  <path class="cls-4" d="M92.52,46.05c2.35-4.21,5.09-4.23,7.45.33-2.33.13-4.68-.11-7.45-.33Z"/>
  <path class="cls-20" d="M882.32,153.99c-2.3.04-4.36.02-6.87,0,1.72-3.95,4.32-4.24,7.44-.58.09.34-.34.53-.57.59Z"/>
  <path class="cls-12" d="M883.12,29.87c2.26,2.14,4.52,4.28,6.46,6.76-1.05.33-1.8.32-2.54.31,0,0-.05.04-.09-.3-1.33-1.46-2.62-2.58-3.91-3.69,0,0-.02.06,0-.31-.09-1.05-.19-1.73-.2-2.5.1-.09.29-.26.29-.26Z"/>
  <path class="cls-3" d="M58.02,47.98c-1.09.34-2.17.68-3.61,1.03.54-2.32,1.44-4.65,2.77-7.1.44-.12.65-.12.65-.12,0,0,.17.17.21.66.02,2.17,0,3.85-.02,5.52Z"/>
  <path class="cls-3" d="M53.99,57c-1.01,0-2.02,0-3.41.01.36-2.22,1.09-4.45,2.14-6.81.63,1.9.95,3.95,1.28,6.4,0,.4,0,.4,0,.4Z"/>
  <path class="cls-12" d="M816.83,134.81c.09,1.64.13,3.06.13,4.91-1.37-2.34-2.7-5.11-4.04-8.26-.01-.38.18-.52.47-.35,1.31,1.13,2.33,2.09,3.35,3.06,0,0,.04.43.09.65Z"/>
  <path class="cls-18" d="M368.9,59.51c-.72.46-1.35.49-2.3.51.39-3.24,1.09-6.47,2.09-9.85.3,2.87.3,5.89.21,9.35Z"/>
  <path class="cls-2" d="M63,150.38c2.69-.31,5.87-.95,6.12,3.76-1.98-.9-3.99-2.17-6.12-3.76Z"/>
  <path class="cls-10" d="M370.31,44.05c.39-2.82.77-5.64,1.59-8.75.43-.29.82-.25.96.18.21,3.13.28,5.83.35,8.53,0,0-.19-.04-.6-.03-1.04.03-1.68.05-2.31.08Z"/>
  <path class="cls-19" d="M872.96,58.67c-.71.39-1.41.37-2.45.31-.4-.44-.46-.85-.54-1.55.28-1.43.58-2.56.89-3.69.43,0,.86-.02,1.29-.03.28,1.52.55,3.04.81,4.96Z"/>
  <path class="cls-12" d="M845.94,132.63c-3.99-.75-4.32-3.57-3.11-7.32,1.13,2.11,2.08,4.54,3.11,7.32Z"/>
  <path class="cls-12" d="M135.37,137.94c-.62-2.49-1.93-5.43,2.17-6.87-.41,2.17-1.12,4.45-2.17,6.87Z"/>
  <path class="cls-20" d="M887.06,37.31c.73-.37,1.48-.35,2.6-.34.37,0,.35.03.45.22.28.43.48.65.72.84.39.77.77,1.53,1.09,2.63-2.43.35-4.74.29-4.86-3.34Z"/>
  <path class="cls-2" d="M115.33,157.72c.99-1.23,2.31-2.47,4.01-3.71-.98,1.23-2.32,2.46-4.01,3.71Z"/>
  <path class="cls-12" d="M166.2,131.34c3.62.45,2.77,3.34,2.83,6.22-.95-1.67-1.89-3.76-2.83-6.22Z"/>
  <path class="cls-22" d="M324.87,90.01c-1.01.3-2.11.23-3.61.13-.81-.06-1.22-.09-1.92-.07,1.32-3.66,3.21-4.16,5.53-.06Z"/>
  <path class="cls-20" d="M65.56,33.07c1.05-.12,1.85-.1,3.04-.07.4,0,.39,0,.39,0-1.09,1.32-2.17,2.64-3.63,3.98-.37.02-.37.03-.37.03.02-.87.04-1.74.06-2.93.08-.5.16-.67.5-1Z"/>
  <path class="cls-2" d="M58.26,144.13c3.42-1.65,3.88.05,2.92,3.34-1-.83-1.86-1.95-2.92-3.34Z"/>
  <path class="cls-12" d="M853.91,137.62c-1.54.29-3.28.28-5.46.26-.73-1.1-1.03-2.17-1.38-3.57,2.18.79,4.41,1.91,6.84,3.31Z"/>
  <path class="cls-18" d="M342.77,78.58c.05-.59.1-.81.23-1.38.38,1.82.68,3.98.73,6.4-.48-1.38-.72-3.02-.96-5.02Z"/>
  <path class="cls-12" d="M172.54,139.09c.41,1.38.45,2.75.46,4.52-.97-1.04-1.91-2.49-2.91-4.27.65-.31,1.37-.29,2.45-.26Z"/>
  <path class="cls-12" d="M370.18,44.41c.76-.38,1.39-.41,2.34-.44-.46,1.19-1.23,2.4-2.31,3.73-.25-.9-.2-1.91-.03-3.28Z"/>
  <path class="cls-2" d="M69.52,155.17c1.06.47,2.17,1.24,3.39,2.3-1.04-.47-2.19-1.23-3.39-2.3Z"/>
  <path class="cls-18" d="M345.81,88.72c-.8-.49-1.59-1.32-2.26-2.38.84.53,1.55,1.29,2.26,2.38Z"/>
  <path class="cls-3" d="M51.37,128.37c.45.53.99,1.33,1.56,2.43-.47-.52-.97-1.34-1.56-2.43Z"/>
  <path class="cls-18" d="M1014.83,23.64c.1.45.11.75,0,1.35-.14.29-.45.38-.45.38,0,0-.22-.22-.33-.33.16-.59.43-1.06.79-1.4Z"/>
  <path class="cls-3" d="M52.84,132.94c.11.09.13.28.16.74-.08-.03-.17-.34-.16-.74Z"/>
  <path class="cls-21" d="M78.81,107.67c-.29-.21-.48-.72-.71-1.51.24.22.52.71.71,1.51Z"/>
  <path class="cls-2" d="M756.76,158.24c.07.14.12.12.15.13-.08.04-.21.11-.29.09-.09-.03-.14-.16-.21-.25.09-.03.19-.07.35.04Z"/>
  <path class="cls-12" d="M369.53,48.08c.12.39-.03.93-.34,1.69-.08-.36,0-.96.34-1.69Z"/>
  <path class="cls-14" d="M775.29,94.01c-.09-.16.11-.31.5-.39,0,.1-.13.21-.5.39Z"/>
  <path class="cls-4" d="M988.68,108.01c.26.13.26.36.21.95-.18-.05-.34-.44-.21-.95Z"/>
  <path class="cls-12" d="M881.97,29.49s.05-.33.07-.5c.32.02.61.2.99.63.09.25-.1.42-.38.32-.41-.22-.55-.33-.69-.45Z"/>
  <path class="cls-4" d="M91.42,46.91c-.06-.17.13-.39.5-.75.15.19,0,.47-.5.75Z"/>
  <path class="cls-18" d="M502.92,101.75c-.23.05-.43-.18-.74-.61.18-.02.47.16.74.61Z"/>
  <path class="cls-2" d="M754.9,155.15c.11-.07.12.28.11.46,0,.18-.3-.02-.3-.02,0,0,.08-.37.19-.44Z"/>
  <path class="cls-12" d="M329.05,119.26c.02-.25.22-.27.31-.29.15.17.21.36.35.82-.28.24-.54.05-.67-.53Z"/>
  <path class="cls-14" d="M774.31,94.96c-.05-.19.17-.42.6-.79,0,.14-.17.43-.6.79Z"/>
  <path class="cls-12" d="M372.72,35.04s-.39-.04-.59-.06c-.04-.32.11-.62.61-.91.35.01.56.21.41.39s-.43.58-.43.58Z"/>
  <path class="cls-7" d="M57.83,41.69c0,.1-.22.1-.31.06s.04-.38.14-.36c.1.02.18.2.18.3Z"/>
  <path class="cls-12" d="M890.85,37.77c-.26.07-.46-.15-.73-.59.19-.02.47.15.73.59Z"/>
  <path class="cls-12" d="M373,33.99c.06-.39.27-.63.74-.95.21-.12.31.17.24.46-.26.47-.46.63-.67.78,0,0-.21-.19-.31-.29Z"/>
  <path class="cls-14" d="M782.73,141.75c-.19.05-.37-.15-.63-.52.22-.14.46.02.63.52Z"/>
  <path class="cls-5" d="M514.58,155.04c-.02.83-.48,2.34-.99,2.36-6.01.22-12.08.59-18.01-.11-.9-.11-1.19-5.43-1.8-8.8,1.01.42,2.86,1.22,2.95,2.19.38,3.91,2.75,4.41,5.9,4.34,3.82-.09,7.65,0,11.94.02Z"/>
  <path class="cls-13" d="M378.12,31.91c-.9-4.76,1.25-6.36,6.01-6.13,7.32.34,14.66.11,21.99.07,2.69-.02,4.21.5,4.2,3.9-.16,40.49-.16,80.98-.19,121.46q0,6.89-6.96,6.92c-4.66.02-9.34-.1-13.99.16-3,.16-3.55-.9-3.53-3.75.18-20.49.15-40.98.16-61.93,4.17-1.23,3.1,2.09,3.12,4,.13,13.16.07,26.33.08,39.5,0,2.17-.03,4.33,0,6.5.21,13.83-2.19,12.31,13.15,12.42,3.34.02,4.99-1.3,4.84-4.73-.08-1.83,0-3.67,0-5.5,0-36.16,0-72.33,0-108.49,0-7.15-.12-7.25-7.27-7.28-3-.01-6.05-.36-8.99.08-4.12.62-8.15,1.82-12.61,2.82Z"/>
  <path class="cls-22" d="M373.16,34.46c.36-.34.56-.5.87-.82.53-.29.92-.43,1.63-.65.75,3.8,3.98,8.19-2.08,10.97-.44-2.66-.51-5.36-.72-8.49-.14-.43.15-.82.3-1.01Z"/>
  <path class="cls-22" d="M373.34,116.6c-2.91-1.69-3.08-3.22.22-7.67,0,2.47,0,4.94-.22,7.67Z"/>
  <path class="cls-1" d="M750.19,77.05c-.64.47-1.54.82-1.86,1.45-.85,1.67-1,4.49-2.23,5.04-4.37,1.95-9.02,3.39-13.68,4.52-2.84.69-4.27-1.29-4.3-4.1-.11-10.66-.31-21.31-.21-31.97.04-3.87,4.29-5.63,9.45-3.97,5.47,1.76,10.69,4.01,12.68,10.99,2.84,6.48,2.21,12.26.16,18.04Z"/>
  <path class="cls-13" d="M723,71v-22.04c3.3,2.75,3.89,31.86,2.04,37.76q-2.04-2.01-2.04-15.72Z"/>
  <path class="cls-18" d="M750.54,76.96c1.71-5.68,2.34-11.46-.32-17.63.92.24,2.17.66,2.7,1.52,2.24,3.7.9,13.39-2.37,16.11Z"/>
  <path class="cls-19" d="M741.02,92.01c-4.01.34-8.01.69-12.02,1.03l-.14-2.59c3.74-.14,7.47-.29,11.68-.1.47.77.48,1.22.48,1.67Z"/>
  <path class="cls-14" d="M758.52,99.76c.43-1.14.72-2.27,1.43-2.73,1.5-.97,3.22-1.58,4.85-2.34.09.86.17,1.71.26,2.57-2.5.15-2.38,6.38-6.54,2.49Z"/>
  <path class="cls-19" d="M734.82,43c1.73.25,3.04.51,4.36.76-.04.48-.08.95-.12,1.43h-10.04c-.07-.46-.14-.92-.2-1.38,1.86-.27,3.72-.54,6-.81Z"/>
  <path class="cls-14" d="M752.82,138.43c-.85-1.12-1.38-2.3-1.91-3.48.89-.13,1.77-.26,2.66-.39-.14,1.27-.29,2.54-.75,3.87Z"/>
  <path class="cls-14" d="M750.44,128.86c-1.26.57-2.46.81-3.66,1.06.19-1.01.38-2.02.56-3.03,1.05.55,2.11,1.1,3.1,1.97Z"/>
  <path class="cls-14" d="M762.93,37.33c1.17-.34,2.27-.37,3.8-.43.42-.03.39.03.34.44-.06,1.49-.08,2.57-.09,3.66-2.89.74-5.22.8-4.05-3.67Z"/>
  <path class="cls-14" d="M770.98,45c-2.95.64-5.65,1.05-2.69-3.69,1.25-.32,2.01-.35,2.77-.37,0,0-.06.05-.05.43,0,1.46-.02,2.54-.03,3.63Z"/>
  <path class="cls-14" d="M769.29,127.32c-.79.86-1.68,1.45-2.57,2.03-.26-.66-.51-1.32-.77-1.98,1.08-.11,2.15-.22,3.33-.06Z"/>
  <path class="cls-14" d="M774.55,75.5c.99-.1,1.87.07,2.76.25-.21.55-.42,1.09-.64,1.64-.74-.54-1.48-1.07-2.12-1.88Z"/>
  <path class="cls-14" d="M773.37,135.88c-.79.62-1.55.96-2.31,1.3-.09-.71-.18-1.42-.27-2.14.87.18,1.74.37,2.59.83Z"/>
  <path class="cls-14" d="M775.92,56.37c.53-.33.97-.35,1.74-.39-.09,1.6-.52,3.22-.94,4.84-.61-.17-1.23-.35-1.84-.52.32-1.21.64-2.41,1.04-3.93Z"/>
  <path class="cls-14" d="M774.95,45.98c0,.45,0,.89,0,1.67-1.1.56-2.18.79-3.92,1.15.34-1.36.57-2.29,1.23-3.49.88-.27,1.32-.27,1.92-.1.35.38.56.58.78.77Z"/>
  <path class="cls-20" d="M771.03,40.6c-.73.37-1.49.4-2.63.44-.55,0-.72,0-1.15-.02-.24-1.09-.23-2.18-.2-3.67,1.33.7,2.64,1.81,3.99,3.26Z"/>
  <path class="cls-14" d="M741.27,92.16c-.26-.6-.27-1.05-.28-1.83,1.18.38,2.37,1.1,3.55,1.82-1.01.05-2.01.11-3.28,0Z"/>
  <path class="cls-20" d="M774.02,45.05c-.45,0-.89,0-1.67,0-.51,0-.68-.02-1.11-.04-.24-1.09-.23-2.18-.2-3.67,1.3.38,2.59,1.17,3.84,2.42-.32.74-.59,1.01-.86,1.29Z"/>
  <path class="cls-14" d="M743.02,29.36c.43-.31.87-.31,1.64-.3.33,1,.33,2,.33,2.99-.32.07-.64.13-.96.2-.33-.86-.67-1.72-1.01-2.89Z"/>
  <path class="cls-14" d="M759.92,34.23c.78.27,1.47.78,2.13,1.53-.76-.27-1.49-.78-2.13-1.53Z"/>
  <path class="cls-14" d="M724.35,91.81c-.53.15-1,.11-1.47.07l.26-.8c.43.18.85.36,1.21.74Z"/>
  <path class="cls-14" d="M776.01,144.01c-.28.23-.56.3-.83.38.01-.27.02-.53.03-.8.27.09.54.18.8.42Z"/>
  <path class="cls-14" d="M759.11,115.72c.38-.03.65.06.92.15-.18.21-.36.42-.53.63-.16-.22-.33-.44-.38-.78Z"/>
  <path class="cls-14" d="M768.01,92.01c-.28.23-.56.3-.83.38.01-.27.02-.53.03-.8.27.09.54.18.8.42Z"/>
  <path class="cls-14" d="M739.78,111.97c.12-.12.24-.14.36-.16-.12.09-.25.17-.36.16Z"/>
  <path class="cls-14" d="M751.82,88.13c0-.17.08-.27.15-.37.08.09.16.18.24.27-.11.06-.21.12-.38.11Z"/>
  <path class="cls-14" d="M756.22,80.03c-.12.12-.24.14-.36.16.12-.09.25-.17.36-.16Z"/>
  <path class="cls-1" d="M206.95,137.16c-2.27-1.18-4.54-2.36-7.02-4.2-1.45-2.13-2.7-3.6-3.94-5.08,0,0-.34-.22-.5-.62-.66-2.33-1.16-4.26-1.67-6.56-.5-2.06-1.48-3.76-1.43-5.44.42-16.75,1-33.5,1.53-50.25,0,0,.1-.44.44-.79.47-1.65.61-2.95.75-4.25,0-.43,0-.86.3-1.7,1.01-1.37,1.72-2.34,2.43-3.31,2.07-3.97,6.02-5.66,10.23-8.09,3.57-.13,6.45-.04,9.48.34,2.58,2.35,5.02,4.42,7.73,6.66,1,.93,1.73,1.69,2.45,2.45,0,0,.01-.07.13.3.86,3.69,1.61,7,2.35,10.69.5,2.06,1.55,3.8,1.42,5.44-1.25,15.68,1.78,31.53-1.81,47.12-1.53,3.46-3.04,6.93-4.6,10.37-1.39,3.06-3.59,5.19-7.49,6.26-.92.5-1.34.65-2.05.71-.77.2-1.24.47-2.13.78-1.51-.03-2.6-.09-3.7-.27,0-.12-.39-.28-.8-.4-.98-.13-1.54-.14-2.11-.14Z"/>
  <path class="cls-18" d="M193.65,65.12c-.26,16.63-.84,33.38-1.25,50.13-.04,1.68.93,3.39,1.08,5.45-1.06.32-1.76.28-2.46.24-.15-.26-.33-.49-.73-1.19-.12-17.57-.06-34.63,0-51.7,1.03-.94,2.05-1.87,3.36-2.93Z"/>
  <path class="cls-19" d="M189.88,68.12c.34,17,.28,34.07.22,51.5-1.03-1.06-2.93-2.47-2.95-3.91-.22-14.41-.21-28.83-.03-43.24.02-1.44,1.54-2.86,2.76-4.35Z"/>
  <path class="cls-18" d="M230.11,119.72c3.3-15.45.28-31.3,1.52-46.98.13-1.64-.93-3.38-1.08-5.43,1.04-.29,1.73-.23,2.41-.16.14.23.31.45.69,1.23.14,16.26.1,31.92.06,47.58-1.11,1.21-2.22,2.42-3.61,3.77Z"/>
  <path class="cls-19" d="M234.12,115.88c-.36-15.6-.32-31.26-.31-47.38,1.03.76,2.98,1.97,3,3.21.23,13.43.22,26.87.05,40.3-.02,1.28-1.52,2.53-2.74,3.87Z"/>
  <path class="cls-19" d="M217.4,46.91c-2.88-.09-5.76-.18-9.03-.2-1.49-.54-2.59-1.14-3.81-1.8,4.55-3.37,13.33-2.55,14.95,1.61-.9.4-1.51.39-2.11.39Z"/>
  <path class="cls-19" d="M206.7,137.35c.82-.18,1.38-.17,2.38.06.43.22.78.42.78.42,1.09.06,2.19.12,3.96.11,1.17-.26,1.66-.46,2.16-.67.42-.14.84-.29,1.58-.48,2.46,2.49,2.24,4.1-1.42,4.16-3.11.05-6.27.27-9.34-.15-3.16-.43-2.49-1.92-.1-3.46Z"/>
  <path class="cls-19" d="M232.98,66.67c-.69.41-1.38.34-2.41.27-1.09-3.33-1.84-6.64-2.74-10.33,3.83-1.08,5.43.72,5.19,4.59-.1,1.66-.02,3.33-.03,5.47Z"/>
  <path class="cls-17" d="M217.55,47.2c.46-.29,1.06-.28,1.97-.3,3.42-.81,5.65-.06,6.23,3.99-.31,1.31-.52,2.05-.74,2.78-2.44-2.06-4.87-4.13-7.46-6.48Z"/>
  <path class="cls-19" d="M191.01,121.37c.71-.39,1.41-.35,2.47-.31.86,1.94,1.36,3.87,1.81,6.19-6.71,2.24-3.31-3.19-4.28-5.89Z"/>
  <path class="cls-19" d="M225.28,53.86c-.05-.91.17-1.65.55-2.62,3.45.18,2.8,2.27,2.01,4.72-.84-.4-1.56-1.16-2.56-2.1Z"/>
  <path class="cls-19" d="M195.92,128.23c1.31,1.12,2.56,2.6,3.85,4.41-3.11.54-5.17-.27-3.85-4.41Z"/>
  <path class="cls-18" d="M197.54,55.01c-.41.91-1.12,1.88-2.15,2.93.4-.9,1.13-1.88,2.15-2.93Z"/>
  <path class="cls-18" d="M194.91,60.26c.06,1-.08,2.3-.48,3.74-.08-1.06.1-2.25.48-3.74Z"/>
  <path class="cls-1" d="M1019.04,106.94c-.33-.73-.66-1.45-.66-2.62.95-1.42,1.92-2.34,2.11-3.39.59-3.31.89-6.67,1.46-10.3.47-1.04.79-1.8,1.37-2.69.17-.62.06-1.12.09-2.01.12-3.18.11-5.97.1-8.75.8-.85,1.61-1.69,2.82-3.11.57-4.71.73-8.84.89-12.98,1.67-.04,3.34-.07,5.23.4.4,3.85.59,7.19.7,10.77-.07.23.03.71.02,1,.34.75.68,1.21,1.02,2.05.5,2.73.97,5.09,1.53,7.42.35,1.45.84,2.86,1.27,4.28,1.45,5.6,2.9,11.2,4.68,17.24.3.84.27,1.24-.15,1.68-2.55.64-4.71,1.75-6.87,1.76-5.21.03-10.41-.46-15.62-.74Z"/>
  <path class="cls-5" d="M1014.24,25.78c.13-.41.45-.5.6-.57,8.7.18,17.24.6,25.79.57,3.96-.01,5.98,1.15,5.61,5.74-7.82-4.5-16.54-2.09-24.9-2.32-1.41-.04-2.97,2.13-4.31,3.43-.97.94-1.68,2.13-2.9,3.26-.26-3.19-.14-6.44.12-10.11Z"/>
  <path class="cls-22" d="M1023.05,88.07c-.32.76-.63,1.52-1.45,2.59-1.2.37-1.89.43-2.58.49.01-3.8,0-7.6.04-11.4.03-2.47,1.01-3.83,4.09-2.69.37,2.9.38,5.69.2,9.31-.23,1.12-.26,1.41-.29,1.7Z"/>
  <path class="cls-19" d="M1033.22,72.02c-.18-3.34-.37-6.68-.5-10.48,2.65-1.57,4.27-.9,4.2,2.11-.09,3.56-.4,7.12-1.06,11.05-.85.32-1.26.27-1.66.22-.35-.46-.69-.92-.96-1.77.16-.66.13-.9-.02-1.13Z"/>
  <path class="cls-22" d="M1026.88,60.98c.18,4.25.02,8.39-.49,12.78-5.92-2.23-2.61-7.08-3.11-10.87-.07-.53,2.12-1.35,3.6-1.92Z"/>
  <path class="cls-18" d="M1019.14,107.31c5.11-.08,10.32.4,15.52.37,2.16-.01,4.32-1.11,6.88-1.48.41.43.42.62.43.81-1.3.9-2.56,2.5-3.91,2.58-5.23.32-10.5.27-15.74.07-1.05-.04-2.06-1.3-3.18-2.36Z"/>
  <path class="cls-13" d="M1042.34,106.92c-.38-.1-.39-.29-.41-.76.02-.68.05-1.08.04-1.78-.03-3.99-.03-7.67-.03-11.36,4.08,3.25,3.83,10.69.4,13.9Z"/>
  <path class="cls-5" d="M1005.88,149.98c-.73.62-1.43.83-2.49,1.1-.36-3.36-.36-6.77-.36-10.18.96,0,1.93,0,2.89,0,0,2.89,0,5.79-.03,9.09Z"/>
  <path class="cls-18" d="M1018.88,91.52c.83-.43,1.52-.5,2.56-.58-.07,3.32-.37,6.68-.96,9.99-.19,1.06-1.16,1.98-2.06,3.09-.08-3.95.12-8.04.46-12.5Z"/>
  <path class="cls-15" d="M1034.2,75.3c.41-.33.81-.28,1.52-.2.74,3.75,1.18,7.47,1.45,11.55-.6-1.07-1.09-2.48-1.44-3.92-.56-2.33-1.03-4.69-1.53-7.42Z"/>
  <path class="cls-19" d="M114.02,25.96c-1.1.97-2.2,2.81-3.34,2.84-9.96.21-19.92.11-29.88.03-.68,0-1.35-.65-2.02-.99.03-.54.07-1.09.1-1.63,11.41-.08,22.83-.15,34.71-.24.47,0,.41.03.43,0Z"/>
  <path class="cls-19" d="M71.19,96.99c-.07-4.29-.07-8.21-.07-12.12.84,0,1.67,0,2.51.01v13.22c-.79-.25-1.57-.49-2.43-1.12Z"/>
  <path class="cls-7" d="M118.94,33.38c2.17.96,4.27,2.24,6.71,3.6.09,1.12-.16,2.17-.61,4.05-2.22-2.97-7.38-2.14-6.1-7.65Z"/>
  <path class="cls-7" d="M91.93,141.38c1.13-.33,2.2-.34,3.66-.34-.43,1.52-1.25,3.04-2.08,4.55-.55-1.3-1.1-2.59-1.58-4.21Z"/>
  <path class="cls-20" d="M69,33c1.21-3.93,3.51-3.38,6.24-.72-1.81.24-3.61.48-5.83.72-.41,0-.41,0-.41,0Z"/>
  <path class="cls-20" d="M58.37,47.91c-.33-1.61-.31-3.28-.25-5.37,4.03,1.12,3.8,3.07.25,5.37Z"/>
  <path class="cls-7" d="M54,57c.16.02.37-.02.48.07,1.02.84,2.03,1.69,3.04,2.54-.51.52-1.01,1.05-1.52,1.57-.66-1.16-1.31-2.31-1.98-3.83-.02-.36,0-.35-.01-.36Z"/>
  <path class="cls-7" d="M74.57,102.01c.37.74.38,1.49.38,2.61-1.43.1-2.86-.17-4.28-.44,1.18-.72,2.36-1.44,3.9-2.17Z"/>
  <path class="cls-7" d="M77.35,128.33c-1.03.09-1.92-.07-2.82-.24.4-.77.81-1.54,1.21-2.31.58.76,1.16,1.53,1.61,2.55Z"/>
  <path class="cls-20" d="M65,37c-.29,1.14-.59,2.27-.88,3.41-.54-.24-1.07-.48-1.61-.72.61-.86,1.23-1.71,2.16-2.63.33-.06.32-.06.32-.07Z"/>
  <path class="cls-7" d="M132.14,127.55c.39.6.53,1.22.67,1.84-.48.02-.95.04-1.43.05.17-.63.33-1.25.76-1.89Z"/>
  <path class="cls-7" d="M119.02,121.35c.43-.3.87-.3,1.64-.29.19.89.05,1.78-.3,3.99-.76-1.94-1.05-2.67-1.34-3.69Z"/>
  <path class="cls-7" d="M75.95,152.97c-.48,0-.82-.15-1.16-.3.28-.28.57-.57.85-.85.15.34.29.68.3,1.15Z"/>
  <path class="cls-7" d="M80.92,47.73c-.08.34-.25.55-.43.76-.16-.22-.33-.44-.49-.66.27-.08.55-.15.92-.1Z"/>
  <path class="cls-7" d="M128.08,48.27c.08-.34.25-.55.43-.76.16.22.33.44.49.66-.27.08-.55.15-.92.1Z"/>
  <path class="cls-7" d="M107.73,139.08c.34.08.55.25.76.43-.22.16-.44.33-.66.49-.08-.27-.15-.55-.1-.92Z"/>
  <path class="cls-7" d="M76.08,56.27c.08-.34.25-.55.43-.76.16.22.33.44.49.66-.27.08-.55.15-.92.1Z"/>
  <path class="cls-7" d="M79.64,32c-.04-.34.03-.58.09-.83.2.16.39.32.59.48-.19.15-.38.29-.68.34Z"/>
  <path class="cls-7" d="M84.13,44.18c-.17,0-.27-.08-.37-.15.15.03.29.06.37.15Z"/>
  <path class="cls-7" d="M111.78,47.97c.12-.12.24-.14.36-.16-.12.09-.25.17-.36.16Z"/>
  <path class="cls-7" d="M112.22,136.03c-.12.12-.24.14-.36.16.12-.09.25-.17.36-.16Z"/>
  <path class="cls-22" d="M661.94,97.66c-1.04,1.71-2.05,4.01-3.11,4.04-9.47.25-18.95.12-28.43.03-.53,0-1.06-.59-2.94-1.71,2.96-.5,4.57-.98,6.19-1.01,6.49-.09,12.98-.2,19.46.01,4.22.14,5.99-1.29,5.95-5.72-.08-8.15-.01-8.29-8.3-8.3-5.66,0-11.31.05-16.97-.04-1.66-.03-3.32-.45-4.98-.69l-.03-1.47c1.32-.26,2.63-.73,3.95-.74,8.15-.07,16.3.03,24.46-.07,3.36-.04,4.91,1.28,4.79,4.72-.12,3.49-.03,6.99-.04,10.94Z"/>
  <path class="cls-22" d="M625.88,134.01c-3.48,3.85-2.74-.32-2.77-1.37-.19-6.47-.16-12.95-.11-19.43.02-3.02.26-6.04,1.58-9.06,1.62,9.81,1.3,19.65,1.3,29.86Z"/>
  <path class="cls-22" d="M622.98,53.38c.24-1.8.47-3.15.7-4.5.7.03,1.4.06,2.1.09.29,9.98.32,19.97-.12,30.86q-2.68-2.88-2.68-13.1c0-4.3,0-8.6,0-13.34Z"/>
  <path class="cls-13" d="M837.87,64.11c.38,18.26.36,36.59.38,55.38-1.05-1.07-3.07-2.6-3.09-4.15-.23-15.62-.2-31.24-.03-46.86.02-1.45,1.53-2.88,2.75-4.38Z"/>
  <path class="cls-20" d="M873.57,154.99c.9,3.29-1.54,2.94-3.45,2.94-10.66.02-21.31-.04-32.41-.14-.51-.73-.58-1.4-.66-2.4,12.01-.36,24.03-.38,36.52-.4Z"/>
  <path class="cls-8" d="M816.95,133.84c-1.22-.64-2.24-1.61-3.46-2.8-.22-3.22-.25-6.22-.26-9.67.19-.65.36-.85.64-1.21,1.08.79,2.74,1.64,2.87,2.69.43,3.52.31,7.11.2,10.99Z"/>
  <path class="cls-20" d="M881.55,29.53c.56.08.69.2,1.01.5.29.87.39,1.55.5,2.58-2.3-.48-4.6-1.3-6.95-2.51,1.63-.44,3.32-.49,5.44-.57Z"/>
  <path class="cls-20" d="M883.06,33.32c1.28.74,2.57,1.85,3.93,3.3-1.26-.75-2.59-1.84-3.93-3.3Z"/>
  <path class="cls-20" d="M818.38,47.93c.42-1.22,1.19-2.5,2.28-3.91-.43,1.2-1.18,2.52-2.28,3.91Z"/>
  <path class="cls-9" d="M951.01,84c0,21.8.01,43.1-.01,64.39,0,6.22-.37,6.56-6.44,6.61-3.49.03-6.99-.06-10.48,0-3.58.06-5.2-1.68-5.07-5.2.03-.83-.02-1.66-.02-2.5,0-37.11,0-74.21,0-111.32,0-6.78.22-6.96,7.05-7q14.96-.09,14.96,15.07c0,13.15,0,26.29,0,39.94Z"/>
  <path class="cls-9" d="M1133.84,131.92c.89.52,1.38.97,2.01,1.62,1.87,1.29,3.57,3.25,5.34,3.31,9.32.32,18.66.3,27.99.09,4.29-.09,5.95,1.44,5.88,5.81-.24,13.9,1.22,12.17-11.87,12.23-14.5.07-29,.03-43.5,0-6.29-.01-6.68-.35-6.68-6.36-.02-37.83.04-75.66-.08-113.49-.01-4.44,1.31-6.3,5.99-6.21,13.71.28,12.02-1.21,12.05,12.06.06,28.16-.03,56.33.12,84.49.01,2.12,1.53,4.24,2.74,6.44Z"/>
  <path class="cls-21" d="M774.16,45.22c.13-.44.4-.71.9-1.17.23-.18.61-.03.79.07-.07.56-.31,1.02-.73,1.67-.4,0-.61-.19-.96-.57Z"/>
  <path class="cls-9" d="M215.69,137.19c-.2.28-.7.48-1.46.72.21-.24.69-.52,1.46-.72Z"/>
  <path class="cls-9" d="M209.86,137.7c0,.12-.35-.08-.37-.18-.02-.1.36.06.37.18Z"/>
  <path class="cls-4" d="M1033.16,72.25c.21,0,.24.24.1.6-.07.11-.16-.37-.1-.6Z"/>
  <path class="cls-4" d="M1023.32,87.94c-.24-.17-.21-.46-.11-1.18.17.06.27.56.11,1.18Z"/>
</svg>