<?xml version="1.0" encoding="UTF-8"?>
<svg id="Layer_1" xmlns="http://www.w3.org/2000/svg" viewBox="0 0 1398 155.88">
  <defs>
    <style>
      .cls-1 {
        fill: #9d9fa2;
      }

      .cls-2 {
        fill: #2b3494;
      }

      .cls-3 {
        fill: #26439b;
      }
    </style>
  </defs>
  <path class="cls-1" d="M76,0c5.14,1.63,9.04,4.76,13.31,7.94,1.62,1.19,3.25,2.38,4.87,3.56.81.59,1.62,1.19,2.46,1.8,3.37,2.44,6.79,4.8,10.23,7.14,6.86,4.68,13.66,9.43,20.45,14.2,4.36,3.06,8.75,6.09,13.17,9.07.88.59,1.76,1.19,2.67,1.8,1.69,1.14,3.39,2.27,5.09,3.4.75.51,1.51,1.02,2.29,1.54.67.45,1.34.89,2.03,1.35q.71.59,1.43,1.2v2q-33.89,15.62-50.25,10.26c-6.3-2.35-11.59-5.51-17.06-9.39-.82-.57-1.63-1.14-2.48-1.72-5.99-4.2-11.82-8.58-17.55-13.13q-4.52-3.82-9.98-4.71c-.56.23-1.11.45-1.69.69,3.28,3.56,7,6.2,11,8.88,1.44.98,2.89,1.96,4.33,2.94.76.52,1.52,1.03,2.31,1.57,4.06,2.78,8.09,5.6,12.12,8.43.84.59,1.68,1.18,2.54,1.78,1.71,1.2,3.43,2.4,5.14,3.61,4.19,2.94,8.38,5.87,12.56,8.8,1.66,1.16,3.33,2.33,4.99,3.49,4.22,2.96,8.45,5.91,12.67,8.86,2.49,1.74,4.98,3.49,7.46,5.23,3.3,2.31,6.6,4.61,9.91,6.89,1.57,1.09,3.14,2.18,4.71,3.27.73.5,1.47,1,2.22,1.52,1.71,1.19,3.38,2.45,5.03,3.73v2c-.78.37-1.57.73-2.38,1.11-25.61,12.02-49.97,24.77-70.17,45q-2.45,1.89-4.35,1.68c-2.4-.9-4.19-2.04-6.28-3.53-.8-.57-1.6-1.13-2.43-1.72q-1.28-.92-2.59-1.86c-.89-.63-1.78-1.26-2.7-1.92-1.83-1.3-3.66-2.6-5.49-3.91-3.7-2.63-7.41-5.25-11.12-7.86-1.38-.98-2.77-1.96-4.15-2.93-13.39-9.45-26.83-18.81-40.35-28.07.7-3.73,2.04-5.42,5.08-7.77,10.78-6.9,25.87-9.2,38.33-6.76,7.12,1.74,12.35,4.51,18.27,8.76.86.6,1.73,1.19,2.61,1.81,2.72,1.89,5.43,3.79,8.14,5.71,2.73,1.92,5.47,3.84,8.21,5.75,1.7,1.18,3.39,2.37,5.08,3.58.77.53,1.53,1.06,2.32,1.61.67.47,1.34.95,2.03,1.43,2.39,1.1,3.5.78,5.93-.12-8.73-6.63-17.53-13.14-26.5-19.43-7.46-5.24-14.85-10.58-22.23-15.93-3-2.18-6.01-4.35-9.02-6.52-1.49-1.08-2.98-2.15-4.48-3.23-3.86-2.79-7.72-5.57-11.59-8.35Q6.93,53.57,0,48c2.63-2.08,5.15-3.66,8.21-5.02.82-.37,1.64-.75,2.49-1.13.88-.4,1.77-.8,2.68-1.22C36.12,30,56.91,16.28,76,0Z"/>
  <path class="cls-2" d="M230,39h44c3.96,13.53,7.92,27.06,12,41q3.58-12.74,7.15-25.49c.45-1.59.9-3.19,1.35-4.78q.35-1.25.7-2.52,1.69-5.98,2.8-8.21h44v78h-29c-.33-15.18-.66-30.36-1-46q-4.24,14.39-8.47,28.78c-.53,1.8-1.06,3.6-1.59,5.4q-.41,1.41-.84,2.85c-.26.89-.53,1.79-.8,2.71-.23.78-.46,1.55-.69,2.36q-.61,1.91-1.61,3.91h-24q-3.38-9-4.44-12.67c-.24-.83-.49-1.66-.74-2.52-.24-.84-.49-1.69-.74-2.56-.23-.8-.47-1.6-.71-2.42-.86-2.94-1.71-5.89-2.56-8.83-1.92-6.6-3.84-13.2-5.81-20-.33,16.17-.66,32.34-1,49h-28V39Z"/>
  <path class="cls-2" d="M451,39c12.54-.06,25.08-.12,38-.19,3.95-.03,7.89-.05,11.96-.08q4.85-.01,7.13-.02c1.58,0,3.15-.02,4.73-.03,2.4-.02,4.8-.02,7.2-.02.69-.01,1.39-.02,2.1-.03,6.46.04,11.77,1.59,16.69,5.75,5.7,6.84,6.38,12.21,6.44,20.81.02.81.04,1.63.06,2.46.04,6.8-.83,13.24-5.18,18.69-.66.53-1.33,1.05-2.01,1.6-.7.56-1.4,1.11-2.12,1.69-2.24,1.53-4.39,2.64-7.01,3.38,3.67,4.49,7.42,8.34,11.83,12.09,3.91,3.43,7.63,7.09,11.17,10.91v1c-5.55.17-11.1.3-16.65.38-1.89.04-3.77.08-5.66.14q-17.7.56-22.72-3.81-1.66-1.93-2.97-3.72c-.74-.72-1.49-1.44-2.25-2.19-.58-.6-1.15-1.2-1.75-1.81-2.67-2.7-5.37-5.33-8.19-7.88-.61-.55-1.22-1.11-1.86-1.68q-2.3-1.83-6.96-3.45v24h-32V39ZM483,59v14c3.73.08,7.46.14,11.19.19q1.58.04,3.2.08c1.02,0,2.04.02,3.1.03.94.02,1.87.03,2.84.05,3.22-.41,5.08-1.43,7.68-3.34q1.17-2.35,1-5-1.14-2.79-3-5c-3.06-1.02-5.12-1.12-8.32-1.1-1.03,0-2.06,0-3.12,0q-1.61.01-3.25.03t-3.28.01c-2.68.01-5.35.03-8.03.05Z"/>
  <path class="cls-2" d="M898.38,35.75c1.09,0,2.19.01,3.31.02,13.66.18,28.45,1.07,39.87,9.54,4.93,5.43,6.44,9.28,6.44,16.69h-36l-2-4c-3.96-2.24-7.64-2.27-12.12-2.25q-1.83,0-3.7-.02-3.34.02-6.18,2.27v4c1.27.19,2.54.37,3.85.56,4.77.7,9.53,1.42,14.29,2.15,2.05.31,4.1.62,6.16.92q28,4.1,35.33,11.81c4.41,6.04,5.22,12.25,4.38,19.56-2.03,8.25-5.75,12.76-12.86,17.14-18.97,9.8-48.17,8.56-68.14,2.86-7.45-2.61-12.69-5.67-17.01-12.36-.96-2.56-1.28-4.6-1.55-7.3q-.13-1.22-.25-2.46c-.06-.62-.12-1.24-.18-1.88,5.36-.12,10.71-.21,16.07-.27,1.82-.03,3.65-.06,5.47-.1,2.62-.06,5.24-.09,7.86-.11.82-.03,1.63-.05,2.47-.08q2.3,0,6.13.57,1.92,2.48,3,5c3.15,1.39,6.59,1.17,10,1.19,1.03.01,2.06.03,3.12.04,2.84-.23,4.47-.77,6.88-2.23v-5c-3.88-2.43-8.13-2.75-12.57-3.33-1.72-.24-3.44-.49-5.16-.73-2.69-.38-5.38-.75-8.08-1.1q-23.11-3.11-30.2-10.71c-4.1-6.41-4.89-13-3.61-20.39,1.7-6.46,5.07-10.12,10.61-13.74,10.58-5.69,22.6-6.36,34.38-6.25Z"/>
  <path class="cls-2" d="M959,39h32c.05,3.71.1,7.41.15,11.23.05,3.59.11,7.18.17,10.76.04,2.49.07,4.99.1,7.48.05,3.58.1,7.17.16,10.75.01,1.12.02,2.23.04,3.38.02,1.04.04,2.08.06,3.15.01.91.03,1.83.04,2.77.3,2.6.9,4.24,2.28,6.46,4.93,3.1,10.34,3.54,16,3,3.64-1.13,6.12-2.01,8.67-4.89,2.06-4.83,1.81-9.56,1.84-14.76.02-1.12.04-2.25.05-3.41.05-3.59.09-7.17.12-10.76.03-2.43.07-4.87.1-7.3.09-5.96.15-11.92.21-17.88h32c.05,6.74.09,13.48.11,20.22,0,2.29.02,4.58.04,6.86q.26,34.78-7.46,43.54c-14.01,12.38-34.02,11.19-51.69,10.38-9.77-.85-20.78-2.62-27.87-9.93-5.5-6.99-7.27-13.86-7.25-22.71,0-1.08,0-2.16,0-3.27,0-1.15.01-2.3.02-3.49,0-1.19,0-2.38,0-3.61,0-3.79.02-7.58.03-11.37,0-2.57,0-5.15.01-7.72.01-6.3.03-12.6.05-18.9Z"/>
  <path class="cls-2" d="M1155,39h32c.05,3.71.1,7.41.15,11.23.05,3.59.11,7.18.17,10.76.04,2.49.07,4.99.1,7.48.05,3.58.1,7.17.16,10.75.01,1.12.02,2.23.04,3.38.02,1.04.04,2.08.06,3.15.01.91.03,1.83.04,2.77.3,2.6.9,4.24,2.28,6.46,4.93,3.1,10.34,3.54,16,3,3.64-1.13,6.12-2.01,8.67-4.89,2.06-4.83,1.81-9.56,1.84-14.76.02-1.12.04-2.25.05-3.41.05-3.59.09-7.17.12-10.76.03-2.43.07-4.87.1-7.3.09-5.96.15-11.92.21-17.88h31c.08,7.38.16,14.77.21,22.15.02,3.44.05,6.88.09,10.32.05,3.96.07,7.91.09,11.87.02,1.22.04,2.43.06,3.69,0,8.52-1.22,15.59-6.36,22.56-14.31,12.58-35.18,11.23-53.1,10.41-9.84-.87-21.04-3.25-27.94-10.88-4.39-6.66-6.19-12.85-6.18-20.74,0-1.1,0-2.2,0-3.34,0-1.18.01-2.35.02-3.57,0-1.21,0-2.43,0-3.68,0-3.87.02-7.74.03-11.62,0-2.63,0-5.25.01-7.88.01-6.44.03-12.87.05-19.31Z"/>
  <path class="cls-2" d="M553,39h31c.05,3.38.1,6.77.15,10.25.05,3.29.11,6.58.17,9.87.04,2.28.07,4.56.1,6.84.05,3.28.1,6.57.16,9.85.01,1.01.02,2.03.04,3.07q0,9.19,4.19,16.99c5.68,2.92,11.8,2.6,17.94,1.38,3.43-1.32,4.52-2.08,6.25-5.25.97-2.92,1.15-4.89,1.21-7.93.02-1,.04-2,.06-3.03q.03-1.62.05-3.27c.02-1.11.04-2.21.06-3.35.07-3.54.12-7.07.18-10.61.04-2.4.09-4.79.13-7.19.11-5.88.21-11.75.31-17.63h31c.08,7.24.16,14.47.21,21.71.02,3.37.05,6.74.09,10.11.05,3.88.07,7.76.09,11.64q.03,1.79.06,3.61c0,8.65-1.26,16.43-6.36,23.62-14.43,12.43-35.15,11.12-53.1,10.32-10.72-.91-20.68-3.25-28.38-11.19-6.05-8-6.05-17.4-5.92-27.04,0-1.23,0-2.46.01-3.72.02-3.89.05-7.78.09-11.67.02-2.65.03-5.3.04-7.96.03-6.47.09-12.94.15-19.42Z"/>
  <path class="cls-2" d="M1261,39h30c.33,8.25.66,16.5,1,25,1.86-1.59,3.71-3.18,5.62-4.81,6.97-5.93,14.13-11.6,21.38-17.19.54-.54,1.08-1.07,1.63-1.63,3.65-2.12,7.15-1.74,11.29-1.67.86,0,1.72,0,2.61.01,2.74.02,5.48.05,8.22.09,1.86.02,3.72.03,5.58.04,4.56.03,9.11.08,13.67.15-7.26,7.29-14.91,13.99-22.92,20.45-2.37,1.96-4.7,3.94-7.01,5.97-.67.59-1.35,1.18-2.04,1.79-1.33,1.17-2.66,2.35-3.99,3.53-.61.54-1.22,1.07-1.85,1.63q-.81.72-1.64,1.46-1.54,1.16-4.54,2.16c4.48,5.44,9.3,10.19,14.59,14.84,2.09,1.87,4.08,3.78,6.04,5.79,2.99,3.04,6.15,5.82,9.38,8.6,2.64,2.35,5.1,4.85,7.55,7.39q1.42,1.49,3.45,2.38v2c-5.51.22-11.02.39-16.54.49-1.87.04-3.74.11-5.62.18q-17.54.72-23.56-4.68c-1.46-1.64-2.89-3.31-4.28-5-1.55-1.48-3.11-2.94-4.7-4.38-1.48-1.39-2.95-2.79-4.43-4.18-2.6-2.45-5.2-4.91-7.88-7.44-.33,8.25-.66,16.5-1,25h-30V39Z"/>
  <path class="cls-2" d="M377,39h39q6.75,13.49,8.94,18.79c.5,1.19.99,2.38,1.5,3.61.52,1.26,1.04,2.52,1.56,3.78,1.13,2.72,2.26,5.43,3.39,8.15.29.7.58,1.4.88,2.11,2.2,5.29,4.44,10.57,6.69,15.84q.49,1.14.98,2.3c1.27,2.98,2.54,5.95,3.82,8.93.88,2.05,1.76,4.11,2.64,6.16q.76,1.76,1.53,3.56,1.08,2.76,1.08,4.76h-34c-.99-2.64-1.98-5.28-3-8h-30c-.99,2.64-1.98,5.28-3,8h-34q3.37-10.12,4.93-13.77c.35-.82.7-1.65,1.06-2.5.37-.86.74-1.72,1.12-2.61.39-.92.78-1.85,1.18-2.8,1.26-2.96,2.52-5.93,3.78-8.89,1.29-3.04,2.58-6.09,3.87-9.13.85-2,1.69-4,2.54-5.99,4.56-10.75,9.05-21.53,13.52-32.31ZM396,66c-1.17,3.29-2.34,6.58-3.5,9.88-.33.94-.67,1.87-1.01,2.84q-.47,1.34-.96,2.71c-.29.83-.59,1.65-.89,2.51q-.74,2.02-.64,4.06h16c-2.17-7.39-4.53-14.7-7-22h-2Z"/>
  <path class="cls-2" d="M1063,39h85q0,18-3.44,23.01c-1.48,1.28-3,2.5-4.56,3.68-.74.62-1.49,1.25-2.25,1.89-1.49,1.24-2.99,2.46-4.52,3.66-6.49,5.14-12.52,10.84-18.56,16.49-.53.5-1.07.99-1.62,1.51-.47.44-.94.87-1.42,1.32-2.14,1.89-4.4,3.66-6.63,5.44,13.86.33,27.72.66,42,1v20h-87q0-18,6-24.69,1.97-1.69,3.62-2.85c2.61-1.89,5.05-3.86,7.44-6.02.61-.53,1.22-1.05,1.85-1.6,3.26-2.87,6.45-5.83,9.65-8.77,3.59-3.3,7.23-6.54,10.92-9.73,1.22-1.07,2.38-2.2,3.52-3.34q-19.8-.5-40-1v-20Z"/>
  <path class="cls-2" d="M651,39h88v20h-28v58h-31v-58h-29v-20Z"/>
  <path class="cls-2" d="M1367,39h31v78h-31V39Z"/>
  <path class="cls-3" d="M745,39h31v78h-31V39Z"/>
</svg>