<?xml version="1.0" encoding="UTF-8"?>
<svg version="1.1" xmlns="http://www.w3.org/2000/svg" width="210" height="40">
<path d="M0 0 C4.69239576 -1.15796218 8.34331623 -1.41231342 13 0 C17.58014528 4.21317495 20.74611665 9.77280709 23.87768555 15.09887695 C24.86242522 16.76695784 25.92551177 18.38826766 27 20 C27.33 14.06 27.66 8.12 28 2 C26.68 2 25.36 2 24 2 C24 1.34 24 0.68 24 0 C27.96 0 31.92 0 36 0 C36 0.66 36 1.32 36 2 C34.68 2 33.36 2 32 2 C32 14.21 32 26.42 32 39 C27.52527129 37.88131782 27.21137622 37.45100591 24.7578125 33.84375 C24.16613281 32.98523437 23.57445313 32.12671875 22.96484375 31.2421875 C22.35769531 30.33726563 21.75054688 29.43234375 21.125 28.5 C20.52558594 27.62601563 19.92617188 26.75203125 19.30859375 25.8515625 C15.48919179 20.2674477 11.75286916 14.62930374 8 9 C8 17.58 8 26.16 8 35 C8.99 35.33 9.98 35.66 11 36 C11 36.99 11 37.98 11 39 C7.37 39 3.74 39 0 39 C0 38.01 0 37.02 0 36 C1.485 35.505 1.485 35.505 3 35 C3 24.11 3 13.22 3 2 C2.01 2 1.02 2 0 2 C0 1.34 0 0.68 0 0 Z " fill="#FFFFFF" transform="translate(1,0)"/>
<path d="M0 0 C9.9 0 19.8 0 30 0 C30 3.3 30 6.6 30 10 C29.34 10 28.68 10 28 10 C27.319375 8.824375 27.319375 8.824375 26.625 7.625 C24.83747827 4.73746489 24.06670722 4.22231747 21 3 C18.00391942 2.47419778 15.03534758 2.26782479 12 2 C12 6.95 12 11.9 12 17 C17.2213392 15.37580496 17.2213392 15.37580496 20.4375 11.3125 C20.623125 10.549375 20.80875 9.78625 21 9 C21.66 9 22.32 9 23 9 C23 14.94 23 20.88 23 27 C22.34 27 21.68 27 21 27 C20.62875 26.05125 20.2575 25.1025 19.875 24.125 C18.03389538 20.28819694 18.03389538 20.28819694 12 19 C12 24.61 12 30.22 12 36 C19.8598901 35.60985538 19.8598901 35.60985538 26 31 C27.33298974 28.38181544 27.33298974 28.38181544 28 26 C28.66 26 29.32 26 30 26 C30 30.29 30 34.58 30 39 C20.1 39 10.2 39 0 39 C0 38.01 0 37.02 0 36 C0.99 36 1.98 36 3 36 C3 24.78 3 13.56 3 2 C2.01 2 1.02 2 0 2 C0 1.34 0 0.68 0 0 Z " fill="#FFFFFF" transform="translate(61,0)"/>
<path d="M0 0 C5.28 0 10.56 0 16 0 C16 0.66 16 1.32 16 2 C15.01 2 14.02 2 13 2 C13.433125 2.69867188 13.86625 3.39734375 14.3125 4.1171875 C14.869375 5.02726563 15.42625 5.93734375 16 6.875 C16.556875 7.77992188 17.11375 8.68484375 17.6875 9.6171875 C19 12 19 12 19 14 C19.66 14 20.32 14 21 14 C21.226875 13.484375 21.45375 12.96875 21.6875 12.4375 C23.4975553 9.07596873 25.73996404 6.07088856 28 3 C27.34 2.67 26.68 2.34 26 2 C26 1.34 26 0.68 26 0 C29.63 0 33.26 0 37 0 C37 0.66 37 1.32 37 2 C36.39462402 2.10344727 35.78924805 2.20689453 35.16552734 2.31347656 C31.49794433 3.47618721 29.7676874 6.73436588 27.625 9.75 C27.14933594 10.37132812 26.67367187 10.99265625 26.18359375 11.6328125 C24.64197304 13.68559476 24.64197304 13.68559476 23 17 C23.3307648 19.6427269 23.3307648 19.6427269 25 22 C25.59554687 23.08796875 26.19109375 24.1759375 26.8046875 25.296875 C27.49053185 26.45045994 28.18072105 27.60147163 28.875 28.75 C29.21402344 29.33910156 29.55304688 29.92820312 29.90234375 30.53515625 C31.9329531 33.93378868 31.9329531 33.93378868 35.2578125 35.890625 C35.83273438 35.92671875 36.40765625 35.9628125 37 36 C37 36.99 37 37.98 37 39 C31.72 39 26.44 39 21 39 C21 38.01 21 37.02 21 36 C21.99 35.505 21.99 35.505 23 35 C21.02 31.7 19.04 28.4 17 25 C15.79719839 26.57174075 14.61318725 28.15787558 13.4375 29.75 C12.77621094 30.63171875 12.11492187 31.5134375 11.43359375 32.421875 C9.54679935 35.1236075 9.54679935 35.1236075 11 39 C7.37 39 3.74 39 0 39 C0 38.01 0 37.02 0 36 C1.65 36 3.3 36 5 36 C5.25265625 35.44054688 5.5053125 34.88109375 5.765625 34.3046875 C7.65828167 30.77092979 10.24198026 27.76302479 12.734375 24.6328125 C14.3044466 22.03546361 14.3044466 22.03546361 13.4453125 19.10546875 C11.84417883 15.66519505 10.09143188 12.43396773 8.125 9.1875 C7.78597656 8.60291016 7.44695312 8.01832031 7.09765625 7.41601562 C5.05937589 4.04733741 5.05937589 4.04733741 1.7421875 2.11328125 C1.16726562 2.07589844 0.59234375 2.03851563 0 2 C0 1.34 0 0.68 0 0 Z " fill="#FFFFFF" transform="translate(115,0)"/>
<path d="M0 0 C1.65 0 3.3 0 5 0 C5.43868408 1.05501709 5.87736816 2.11003418 6.3293457 3.19702148 C7.95653974 7.10223643 9.59800408 11.00131473 11.24389648 14.89868164 C11.95485224 16.58779036 12.66190331 18.27854804 13.36499023 19.97094727 C14.37507558 22.40041962 15.39895984 24.82365599 16.42578125 27.24609375 C16.73840408 28.00651474 17.05102692 28.76693573 17.37312317 29.55039978 C18.16705089 31.40409679 19.07483435 33.2081902 20 35 C20.99 35.33 21.98 35.66 23 36 C23 36.99 23 37.98 23 39 C18.05 39 13.1 39 8 39 C8 38.01 8 37.02 8 36 C8.99 35.505 8.99 35.505 10 35 C9.505 33.906875 9.01 32.81375 8.5 31.6875 C7 28 7 28 7 25 C2.71 25 -1.58 25 -6 25 C-6.99 28.3 -7.98 31.6 -9 35 C-8.34 35.33 -7.68 35.66 -7 36 C-7 36.99 -7 37.98 -7 39 C-10.63 39 -14.26 39 -18 39 C-18 38.01 -18 37.02 -18 36 C-17.06380829 35.855411 -17.06380829 35.855411 -16.10870361 35.707901 C-13.57869055 35.12942734 -13.57869055 35.12942734 -12.26074219 31.67358398 C-11.67349177 30.20403216 -11.10327753 28.72760036 -10.546875 27.24609375 C-10.08924774 26.08292381 -10.08924774 26.08292381 -9.62237549 24.89625549 C-8.65022088 22.41544465 -7.69997873 19.92687607 -6.75 17.4375 C-6.09517464 15.75530411 -5.4389418 14.07365539 -4.78125 12.39257812 C-3.17109254 8.26789298 -1.58053817 4.13612056 0 0 Z M0 11 C-0.67119549 12.4562545 -1.33681807 13.91507867 -2 15.375 C-2.37125 16.18710937 -2.7425 16.99921875 -3.125 17.8359375 C-4.12495013 19.91998433 -4.12495013 19.91998433 -4 22 C-1.03 22 1.94 22 5 22 C3.68 18.37 2.36 14.74 1 11 C0.67 11 0.34 11 0 11 Z " fill="#FFFFFF" transform="translate(186,0)"/>
</svg>
