<?xml version="1.0" encoding="UTF-8"?>
<svg version="1.1" xmlns="http://www.w3.org/2000/svg" width="260" height="46">
<path d="M0 0 C0 0.66 0 1.32 0 2 C-1.6875 3.26171875 -1.6875 3.26171875 -4 4.6875 C-13.44846741 10.84376705 -21.87932727 18.75865454 -27 29 C-27.66 29 -28.32 29 -29 29 C-29.226875 29.680625 -29.45375 30.36125 -29.6875 31.0625 C-30.3371875 32.5165625 -30.3371875 32.5165625 -31 34 C-31.27199219 34.62390625 -31.54398438 35.2478125 -31.82421875 35.890625 C-33.04209491 38.11811597 -33.9588942 39.46592048 -36 41 C-40.0625164 41.603816 -43.92386963 41.40956334 -48 41 C-49.9603007 35.61762264 -50.92735965 30.28295223 -51.85546875 24.65820312 C-52.46569277 21.17074006 -53.00684982 18.98972528 -55 16 C-55 14.68 -55 13.36 -55 12 C-50.32083241 12.11213691 -46.9645441 12.32276691 -43.0625 15.0625 C-40.4785918 18.74261168 -39.82041243 21.59960608 -39 26 C-38.48953125 25.29037109 -38.48953125 25.29037109 -37.96875 24.56640625 C-28.33328699 11.42014954 -17.61454609 -1.0784416 0 0 Z " fill="#FFFFFF" transform="translate(172,1)"/>
<path d="M0 0 C2.91691525 -0.05401695 5.83282724 -0.09368066 8.75 -0.125 C9.575 -0.14175781 10.4 -0.15851562 11.25 -0.17578125 C12.04921875 -0.18222656 12.8484375 -0.18867188 13.671875 -0.1953125 C14.4050293 -0.20578613 15.13818359 -0.21625977 15.89355469 -0.22705078 C18.35897373 0.03869327 19.90964746 0.67491578 22 2 C23.5 4.6875 23.5 4.6875 24 8 C23.13463364 10.72053086 21.96359311 12.9240487 20 15 C17.34765625 16.203125 17.34765625 16.203125 15 17 C15.433125 17.69867187 15.86625 18.39734375 16.3125 19.1171875 C16.869375 20.02726562 17.42625 20.93734375 18 21.875 C18.556875 22.77992187 19.11375 23.68484375 19.6875 24.6171875 C21 27 21 27 21 29 C10.16233184 29.92017937 10.16233184 29.92017937 7.3125 27.6640625 C6.25 26 6.25 26 5 23 C4.34 24.98 3.68 26.96 3 29 C-0.63 29 -4.26 29 -8 29 C-7.23369556 25.85300271 -6.46208779 22.70745957 -5.6875 19.5625 C-5.47416016 18.68400391 -5.26082031 17.80550781 -5.04101562 16.90039062 C-3.62282426 11.16412407 -1.96037673 5.57442196 0 0 Z M9 7 C8.34 8.65 7.68 10.3 7 12 C8.65 11.67 10.3 11.34 12 11 C11.67 9.68 11.34 8.36 11 7 C10.34 7 9.68 7 9 7 Z " fill="#FFFFFF" transform="translate(29,13)"/>
<path d="M0 0 C3.3 0 6.6 0 10 0 C9.46854744 7.33404533 8.12647569 13.96524395 6 21 C9.465 20.505 9.465 20.505 13 20 C14.98 13.4 16.96 6.8 19 0 C22.63 0 26.26 0 30 0 C25.70166861 22.5988029 25.70166861 22.5988029 18.83032227 28.00317383 C15.3385824 29.90483768 11.76115193 29.67978191 7.875 29.5625 C7.07707031 29.57345703 6.27914062 29.58441406 5.45703125 29.59570312 C1.8370108 29.55037733 -0.41453781 29.35181444 -3.5546875 27.46484375 C-6.00153164 23.29198252 -5.49990058 19.31002445 -4.515625 14.76171875 C-3.90228206 12.48527284 -3.21978252 10.24494332 -2.5 8 C-2.26152344 7.22527344 -2.02304687 6.45054688 -1.77734375 5.65234375 C-1.19486803 3.76512242 -0.59884697 1.88209049 0 0 Z " fill="#FFFFFF" transform="translate(56,13)"/>
<path d="M0 0 C3.63 0 7.26 0 11 0 C10.3930011 3.03499452 9.78126479 5.99691711 9.02734375 8.98828125 C8.85009766 9.69404297 8.67285156 10.39980469 8.49023438 11.12695312 C8.30783203 11.84818359 8.12542969 12.56941406 7.9375 13.3125 C7.75123047 14.05306641 7.56496094 14.79363281 7.37304688 15.55664062 C6.91643895 17.37136441 6.45836694 19.18571971 6 21 C9.465 20.505 9.465 20.505 13 20 C14.98 13.4 16.96 6.8 19 0 C22.3 0 25.6 0 29 0 C28.17457102 10.0702335 26.6925288 19.13627866 20 27 C15.95167792 29.69888139 12.81696488 29.40367377 8.0625 29.4375 C7.25103516 29.47037109 6.43957031 29.50324219 5.60351562 29.53710938 C1.41892899 29.57487021 -0.34721521 29.58124673 -3.56640625 26.71484375 C-7.47717512 19.3088918 -2.17333262 7.67236959 0 0 Z " fill="#FFFFFF" transform="translate(205,13)"/>
<path d="M0 0 C0.95132813 0.0928125 1.90265625 0.185625 2.8828125 0.28125 C3.84960938 0.3534375 4.81640625 0.425625 5.8125 0.5 C6.53695312 0.5928125 7.26140625 0.685625 8.0078125 0.78125 C8.09345459 1.34110596 8.17909668 1.90096191 8.26733398 2.4777832 C8.65729311 5.01686208 9.05125766 7.55530368 9.4453125 10.09375 C9.58001953 10.97482422 9.71472656 11.85589844 9.85351562 12.76367188 C10.05170898 14.03500977 10.05170898 14.03500977 10.25390625 15.33203125 C10.37435303 16.11231689 10.4947998 16.89260254 10.61889648 17.6965332 C10.99269861 19.96404797 10.99269861 19.96404797 12.0078125 22.78125 C12.04735484 25.11424825 12.05182982 27.44833189 12.0078125 29.78125 C8.3778125 29.78125 4.7478125 29.78125 1.0078125 29.78125 C1.0078125 28.46125 1.0078125 27.14125 1.0078125 25.78125 C-2.6221875 25.78125 -6.2521875 25.78125 -9.9921875 25.78125 C-10.3221875 27.10125 -10.6521875 28.42125 -10.9921875 29.78125 C-14.6221875 29.78125 -18.2521875 29.78125 -21.9921875 29.78125 C-21.10275949 26.22353797 -20.51547267 24.79020817 -18.48046875 21.953125 C-17.96935547 21.23511719 -17.45824219 20.51710938 -16.93164062 19.77734375 C-16.39474609 19.03613281 -15.85785156 18.29492188 -15.3046875 17.53125 C-14.78712891 16.80550781 -14.26957031 16.07976563 -13.73632812 15.33203125 C-12.69084005 13.8712123 -11.6364401 12.4167305 -10.57324219 10.96875 C-9.50543261 9.49136059 -8.46999405 7.99010855 -7.46582031 6.46875 C-3.72051667 0.97141428 -3.72051667 0.97141428 0 0 Z M-1.9921875 14.78125 C-1.9921875 15.44125 -1.9921875 16.10125 -1.9921875 16.78125 C-2.9821875 17.27625 -2.9821875 17.27625 -3.9921875 17.78125 C-2.6721875 17.45125 -1.3521875 17.12125 0.0078125 16.78125 C-0.6521875 16.12125 -1.3121875 15.46125 -1.9921875 14.78125 Z " fill="#FFFFFF" transform="translate(162.9921875,12.21875)"/>
<path d="M0 0 C6.27 0 12.54 0 19 0 C19 2.64 19 5.28 19 8 C15.7 8.33 12.4 8.66 9 9 C11.64 9.33 14.28 9.66 17 10 C16.125 16.75 16.125 16.75 15 19 C12.0170339 19.59772099 9.03669195 19.74337815 6 20 C8.97 20.33 11.94 20.66 15 21 C14.34 23.64 13.68 26.28 13 29 C6.4 29 -0.2 29 -7 29 C-6.23586007 23.65102052 -5.30496254 18.60350409 -4.0625 13.375 C-3.89298828 12.63765625 -3.72347656 11.9003125 -3.54882812 11.140625 C-3.37931641 10.42132813 -3.20980469 9.70203125 -3.03515625 8.9609375 C-2.8844165 8.31946777 -2.73367676 7.67799805 -2.57836914 7.01708984 C-1.89152374 4.62168387 -0.92548041 2.31370101 0 0 Z " fill="#FFFFFF" transform="translate(237,13)"/>
<path d="M0 0 C6.6 0 13.2 0 20 0 C19 7 19 7 18 8 C16.48530552 8.23192865 14.96245438 8.41215238 13.4375 8.5625 C12.61121094 8.64628906 11.78492187 8.73007812 10.93359375 8.81640625 C10.29550781 8.87699219 9.65742187 8.93757813 9 9 C11.64 9.33 14.28 9.66 17 10 C16.125 17.875 16.125 17.875 15 19 C13.48530552 19.23192865 11.96245438 19.41215238 10.4375 19.5625 C9.19806641 19.68818359 9.19806641 19.68818359 7.93359375 19.81640625 C7.29550781 19.87699219 6.65742187 19.93757813 6 20 C8.64 20.33 11.28 20.66 14 21 C13.67 23.64 13.34 26.28 13 29 C6.4 29 -0.2 29 -7 29 C-6.30348172 23.42785376 -5.52465558 18.7049709 -4.0625 13.375 C-3.72347656 12.12460937 -3.38445312 10.87421875 -3.03515625 9.5859375 C-2.1055864 6.36576721 -1.05988664 3.17965991 0 0 Z " fill="#FFFFFF" transform="translate(88,13)"/>
<path d="M0 0 C8.25 0 16.5 0 25 0 C24.34 2.64 23.68 5.28 23 8 C20.69 8 18.38 8 16 8 C15.87625 9.03125 15.7525 10.0625 15.625 11.125 C15.05597794 14.65293679 14.16673083 17.63706996 13 21 C12.29094651 23.65774472 11.64550647 26.32575891 11 29 C7.37 29 3.74 29 0 29 C0.6099126 24.01155691 1.63474435 19.39844654 3.0625 14.5625 C3.42472656 13.32628906 3.78695313 12.09007812 4.16015625 10.81640625 C4.43730469 9.88699219 4.71445313 8.95757812 5 8 C3.35 8 1.7 8 0 8 C0 5.36 0 2.72 0 0 Z " fill="#FFFFFF" transform="translate(2,13)"/>
<path d="M0 0 C3.63 0 7.26 0 11 0 C10.35587386 2.77124036 9.70977252 5.54199445 9.0625 8.3125 C8.88009766 9.09818359 8.69769531 9.88386719 8.50976562 10.69335938 C8.33251953 11.45068359 8.15527344 12.20800781 7.97265625 12.98828125 C7.81031494 13.68477783 7.64797363 14.38127441 7.48071289 15.09887695 C7.06234435 16.7534406 6.53968631 18.38094108 6 20 C8.64 20.33 11.28 20.66 14 21 C13.67 23.64 13.34 26.28 13 29 C6.4 29 -0.2 29 -7 29 C-5.875 20 -5.875 20 -4.58984375 15.625 C-4.32236328 14.70332031 -4.05488281 13.78164063 -3.77929688 12.83203125 C-3.50150391 11.89746094 -3.22371094 10.96289062 -2.9375 10 C-2.65583984 9.03449219 -2.37417969 8.06898437 -2.08398438 7.07421875 C-1.39477333 4.71454704 -0.69814606 2.35704359 0 0 Z " fill="#FFFFFF" transform="translate(184,13)"/>
</svg>
